<svg width="140" height="36" viewBox="0 0 140 36" fill="none" xmlns="http://www.w3.org/2000/svg">
<rect width="140" height="36" rx="4" fill="#6366F1"/>
<path fill-rule="evenodd" clip-rule="evenodd" d="M25.25 14.25C25.25 12.1823 26.9323 10.5 29 10.5C31.0677 10.5 32.75 12.1823 32.75 14.25C32.75 16.3177 31.0677 18 29 18C26.9323 18 25.25 16.3177 25.25 14.25ZM29 16.5C27.7574 16.5 26.75 15.4926 26.75 14.25C26.75 13.0074 27.7574 12 29 12C30.2426 12 31.25 13.0074 31.25 14.25C31.25 15.4926 30.2426 16.5 29 16.5Z" fill="white"/>
<path d="M35.75 24V24.75H34.25V24C34.25 21.9323 32.5677 20.25 30.5 20.25H27.5C25.4323 20.25 23.75 21.9323 23.75 24V24.75H22.25V24C22.25 21.1057 24.605 18.75 27.5 18.75H30.5C33.3943 18.75 35.75 21.1057 35.75 24Z" fill="white"/>
<path d="M50.8567 23.21C50.1333 23.21 49.48 23.0863 48.8967 22.839C48.318 22.587 47.8397 22.23 47.4617 21.768C47.0883 21.3013 46.8457 20.7483 46.7337 20.109L48.2597 19.878C48.4137 20.494 48.7357 20.9747 49.2257 21.32C49.7157 21.6607 50.2873 21.831 50.9407 21.831C51.3467 21.831 51.72 21.768 52.0607 21.642C52.4013 21.5113 52.6743 21.327 52.8797 21.089C53.0897 20.8463 53.1947 20.557 53.1947 20.221C53.1947 20.039 53.162 19.878 53.0967 19.738C53.036 19.598 52.9497 19.4767 52.8377 19.374C52.7303 19.2667 52.5973 19.1757 52.4387 19.101C52.2847 19.0217 52.1143 18.954 51.9277 18.898L49.3447 18.135C49.0927 18.0603 48.836 17.9647 48.5747 17.848C48.3133 17.7267 48.073 17.5703 47.8537 17.379C47.639 17.183 47.464 16.9427 47.3287 16.658C47.1933 16.3687 47.1257 16.0187 47.1257 15.608C47.1257 14.9873 47.2843 14.4623 47.6017 14.033C47.9237 13.599 48.3577 13.2723 48.9037 13.053C49.4497 12.829 50.061 12.717 50.7377 12.717C51.419 12.7263 52.028 12.8477 52.5647 13.081C53.106 13.3143 53.554 13.6503 53.9087 14.089C54.268 14.523 54.5153 15.0503 54.6507 15.671L53.0827 15.937C53.0127 15.559 52.8633 15.2347 52.6347 14.964C52.406 14.6887 52.126 14.4787 51.7947 14.334C51.4633 14.1847 51.104 14.1077 50.7167 14.103C50.3433 14.0937 50.0003 14.1497 49.6877 14.271C49.3797 14.3923 49.1323 14.5627 48.9457 14.782C48.7637 15.0013 48.6727 15.2533 48.6727 15.538C48.6727 15.818 48.7543 16.0443 48.9177 16.217C49.081 16.3897 49.2817 16.5273 49.5197 16.63C49.7623 16.728 50.0027 16.8097 50.2407 16.875L52.1027 17.4C52.336 17.4653 52.5997 17.554 52.8937 17.666C53.1923 17.7733 53.4793 17.925 53.7547 18.121C54.0347 18.317 54.2657 18.5783 54.4477 18.905C54.6297 19.227 54.7207 19.633 54.7207 20.123C54.7207 20.6317 54.618 21.0797 54.4127 21.467C54.2073 21.8497 53.925 22.1717 53.5657 22.433C53.211 22.6897 52.8003 22.8833 52.3337 23.014C51.867 23.1447 51.3747 23.21 50.8567 23.21ZM56.3524 14.201V12.78H57.8154V14.201H56.3524ZM56.3524 23V15.44H57.8154V23H56.3524ZM63.0325 26.57C62.6265 26.57 62.2322 26.507 61.8495 26.381C61.4715 26.255 61.1262 26.0683 60.8135 25.821C60.5008 25.5783 60.2418 25.2773 60.0365 24.918L61.3875 24.232C61.5508 24.554 61.7842 24.7897 62.0875 24.939C62.3908 25.0883 62.7105 25.163 63.0465 25.163C63.4618 25.163 63.8165 25.0883 64.1105 24.939C64.4045 24.7943 64.6262 24.575 64.7755 24.281C64.9295 23.987 65.0042 23.623 64.9995 23.189V21.075H65.1745V15.44H66.4695V23.203C66.4695 23.4037 66.4625 23.595 66.4485 23.777C66.4345 23.959 66.4088 24.141 66.3715 24.323C66.2642 24.8317 66.0588 25.2517 65.7555 25.583C65.4568 25.9143 65.0742 26.1617 64.6075 26.325C64.1455 26.4883 63.6205 26.57 63.0325 26.57ZM62.9205 23.21C62.2158 23.21 61.6068 23.035 61.0935 22.685C60.5848 22.335 60.1905 21.859 59.9105 21.257C59.6352 20.6503 59.4975 19.969 59.4975 19.213C59.4975 18.4523 59.6375 17.7733 59.9175 17.176C60.1975 16.574 60.5942 16.1003 61.1075 15.755C61.6255 15.405 62.2392 15.23 62.9485 15.23C63.6625 15.23 64.2622 15.405 64.7475 15.755C65.2375 16.1003 65.6062 16.574 65.8535 17.176C66.1055 17.778 66.2315 18.457 66.2315 19.213C66.2315 19.969 66.1055 20.648 65.8535 21.25C65.6015 21.852 65.2305 22.3303 64.7405 22.685C64.2505 23.035 63.6438 23.21 62.9205 23.21ZM63.1235 21.887C63.6042 21.887 63.9962 21.7727 64.2995 21.544C64.6028 21.3153 64.8245 21.0003 64.9645 20.599C65.1045 20.1977 65.1745 19.7357 65.1745 19.213C65.1745 18.6903 65.1022 18.2283 64.9575 17.827C64.8175 17.4257 64.5982 17.113 64.2995 16.889C64.0055 16.665 63.6298 16.553 63.1725 16.553C62.6872 16.553 62.2882 16.672 61.9755 16.91C61.6628 17.148 61.4295 17.4677 61.2755 17.869C61.1262 18.2703 61.0515 18.7183 61.0515 19.213C61.0515 19.7123 61.1262 20.165 61.2755 20.571C61.4295 20.9723 61.6582 21.292 61.9615 21.53C62.2695 21.768 62.6568 21.887 63.1235 21.887ZM73.7411 23V19.283C73.7411 18.989 73.7154 18.688 73.6641 18.38C73.6174 18.0673 73.5241 17.778 73.3841 17.512C73.2487 17.246 73.0551 17.0313 72.8031 16.868C72.5557 16.7047 72.2314 16.623 71.8301 16.623C71.5687 16.623 71.3214 16.6673 71.0881 16.756C70.8547 16.84 70.6494 16.9777 70.4721 17.169C70.2994 17.3603 70.1617 17.6123 70.0591 17.925C69.9611 18.2377 69.9121 18.618 69.9121 19.066L69.0021 18.723C69.0021 18.037 69.1304 17.4327 69.3871 16.91C69.6437 16.3827 70.0124 15.972 70.4931 15.678C70.9737 15.384 71.5547 15.237 72.2361 15.237C72.7587 15.237 73.1974 15.321 73.5521 15.489C73.9067 15.657 74.1937 15.8787 74.4131 16.154C74.6371 16.4247 74.8074 16.721 74.9241 17.043C75.0407 17.365 75.1201 17.68 75.1621 17.988C75.2041 18.296 75.2251 18.5667 75.2251 18.8V23H73.7411ZM68.4281 23V15.44H69.7371V17.624H69.9121V23H68.4281ZM79.9911 14.201V12.78H81.4541V14.201H79.9911ZM79.9911 23V15.44H81.4541V23H79.9911ZM88.8622 23V19.283C88.8622 18.989 88.8365 18.688 88.7852 18.38C88.7385 18.0673 88.6452 17.778 88.5052 17.512C88.3698 17.246 88.1762 17.0313 87.9242 16.868C87.6768 16.7047 87.3525 16.623 86.9512 16.623C86.6898 16.623 86.4425 16.6673 86.2092 16.756C85.9758 16.84 85.7705 16.9777 85.5932 17.169C85.4205 17.3603 85.2828 17.6123 85.1802 17.925C85.0822 18.2377 85.0332 18.618 85.0332 19.066L84.1232 18.723C84.1232 18.037 84.2515 17.4327 84.5082 16.91C84.7648 16.3827 85.1335 15.972 85.6142 15.678C86.0948 15.384 86.6758 15.237 87.3572 15.237C87.8798 15.237 88.3185 15.321 88.6732 15.489C89.0278 15.657 89.3148 15.8787 89.5342 16.154C89.7582 16.4247 89.9285 16.721 90.0452 17.043C90.1618 17.365 90.2412 17.68 90.2832 17.988C90.3252 18.296 90.3462 18.5667 90.3462 18.8V23H88.8622ZM83.5492 23V15.44H84.8582V17.624H85.0332V23H83.5492ZM97.5202 12.92H98.9972L96.3092 23H94.8322L97.5202 12.92ZM106.475 23.203C105.953 23.203 105.514 23.119 105.159 22.951C104.805 22.783 104.515 22.5637 104.291 22.293C104.072 22.0177 103.904 21.719 103.787 21.397C103.671 21.075 103.591 20.76 103.549 20.452C103.507 20.144 103.486 19.8733 103.486 19.64V15.44H104.97V19.157C104.97 19.451 104.994 19.7543 105.04 20.067C105.092 20.375 105.185 20.662 105.32 20.928C105.46 21.194 105.654 21.4087 105.901 21.572C106.153 21.7353 106.48 21.817 106.881 21.817C107.143 21.817 107.39 21.775 107.623 21.691C107.857 21.6023 108.06 21.4623 108.232 21.271C108.41 21.0797 108.547 20.8277 108.645 20.515C108.748 20.2023 108.799 19.822 108.799 19.374L109.709 19.717C109.709 20.403 109.581 21.0097 109.324 21.537C109.068 22.0597 108.699 22.468 108.218 22.762C107.738 23.056 107.157 23.203 106.475 23.203ZM108.974 23V20.816H108.799V15.44H110.276V23H108.974ZM115.789 23.21C115.065 23.21 114.459 23.035 113.969 22.685C113.479 22.3303 113.108 21.852 112.856 21.25C112.604 20.648 112.478 19.969 112.478 19.213C112.478 18.457 112.601 17.778 112.849 17.176C113.101 16.574 113.469 16.1003 113.955 15.755C114.445 15.405 115.047 15.23 115.761 15.23C116.47 15.23 117.081 15.405 117.595 15.755C118.113 16.1003 118.512 16.574 118.792 17.176C119.072 17.7733 119.212 18.4523 119.212 19.213C119.212 19.969 119.072 20.6503 118.792 21.257C118.516 21.859 118.122 22.335 117.609 22.685C117.1 23.035 116.493 23.21 115.789 23.21ZM112.233 26.36V15.44H113.535V20.879H113.703V26.36H112.233ZM115.586 21.887C116.052 21.887 116.437 21.768 116.741 21.53C117.049 21.292 117.277 20.9723 117.427 20.571C117.581 20.165 117.658 19.7123 117.658 19.213C117.658 18.7183 117.581 18.2703 117.427 17.869C117.277 17.4677 117.046 17.148 116.734 16.91C116.421 16.672 116.022 16.553 115.537 16.553C115.079 16.553 114.701 16.665 114.403 16.889C114.109 17.113 113.889 17.4257 113.745 17.827C113.605 18.2283 113.535 18.6903 113.535 19.213C113.535 19.7357 113.605 20.1977 113.745 20.599C113.885 21.0003 114.106 21.3153 114.41 21.544C114.713 21.7727 115.105 21.887 115.586 21.887Z" fill="white"/>
</svg>
