<svg width="66" height="13" viewBox="0 0 66 13" fill="none" xmlns="http://www.w3.org/2000/svg">
<path d="M0.12 12V0.48H6.944V2.152H1.792V5.4H5.984V7.08H1.792V12H0.12ZM11.9833 12.24C11.1246 12.24 10.3699 12.0533 9.71925 11.68C9.07392 11.3013 8.56992 10.776 8.20725 10.104C7.84992 9.42667 7.67125 8.64267 7.67125 7.752C7.67125 6.808 7.84725 5.98933 8.19925 5.296C8.55658 4.60267 9.05258 4.06667 9.68725 3.688C10.3219 3.30933 11.0606 3.12 11.9033 3.12C12.7833 3.12 13.5326 3.32533 14.1513 3.736C14.7699 4.14133 15.2313 4.72 15.5353 5.472C15.8446 6.224 15.9673 7.11733 15.9033 8.152H14.2313V7.544C14.2206 6.54133 14.0286 5.8 13.6553 5.32C13.2873 4.84 12.7246 4.6 11.9673 4.6C11.1299 4.6 10.5006 4.864 10.0793 5.392C9.65792 5.92 9.44725 6.68267 9.44725 7.68C9.44725 8.62933 9.65792 9.36533 10.0793 9.888C10.5006 10.4053 11.1086 10.664 11.9033 10.664C12.4259 10.664 12.8766 10.5467 13.2553 10.312C13.6393 10.072 13.9379 9.73067 14.1513 9.288L15.7913 9.808C15.4553 10.5813 14.9459 11.1813 14.2633 11.608C13.5806 12.0293 12.8206 12.24 11.9833 12.24ZM8.90325 8.152V6.848H15.0712V8.152H8.90325ZM19.9819 12.24C19.3419 12.24 18.8059 12.1227 18.3739 11.888C17.9419 11.648 17.6139 11.3333 17.3899 10.944C17.1712 10.5493 17.0619 10.1173 17.0619 9.648C17.0619 9.21067 17.1392 8.82667 17.2939 8.496C17.4485 8.16533 17.6779 7.88533 17.9819 7.656C18.2859 7.42133 18.6592 7.232 19.1019 7.088C19.4859 6.976 19.9205 6.87733 20.4059 6.792C20.8912 6.70667 21.4005 6.62667 21.9339 6.552C22.4725 6.47733 23.0059 6.40267 23.5339 6.328L22.9259 6.664C22.9365 5.98667 22.7925 5.48533 22.4939 5.16C22.2005 4.82933 21.6939 4.664 20.9739 4.664C20.5205 4.664 20.1045 4.77067 19.7259 4.984C19.3472 5.192 19.0832 5.53867 18.9339 6.024L17.3739 5.544C17.5872 4.80267 17.9925 4.21333 18.5899 3.776C19.1925 3.33867 19.9925 3.12 20.9899 3.12C21.7632 3.12 22.4352 3.25333 23.0059 3.52C23.5819 3.78133 24.0032 4.19733 24.2699 4.768C24.4085 5.05067 24.4939 5.34933 24.5259 5.664C24.5579 5.97867 24.5739 6.31733 24.5739 6.68V12H23.0939V10.024L23.3819 10.28C23.0245 10.9413 22.5685 11.4347 22.0139 11.76C21.4645 12.08 20.7872 12.24 19.9819 12.24ZM20.2779 10.872C20.7525 10.872 21.1605 10.7893 21.5019 10.624C21.8432 10.4533 22.1179 10.2373 22.3259 9.976C22.5339 9.71467 22.6699 9.44267 22.7339 9.16C22.8245 8.904 22.8752 8.616 22.8859 8.296C22.9019 7.976 22.9099 7.72 22.9099 7.528L23.4539 7.728C22.9259 7.808 22.4459 7.88 22.0139 7.944C21.5819 8.008 21.1899 8.072 20.8379 8.136C20.4912 8.19467 20.1819 8.26667 19.9099 8.352C19.6805 8.432 19.4752 8.528 19.2939 8.64C19.1179 8.752 18.9765 8.888 18.8699 9.048C18.7685 9.208 18.7179 9.40267 18.7179 9.632C18.7179 9.856 18.7739 10.064 18.8859 10.256C18.9979 10.4427 19.1685 10.592 19.3979 10.704C19.6272 10.816 19.9205 10.872 20.2779 10.872ZM31.5953 12C31.0513 12.1067 30.5179 12.152 29.9953 12.136C29.4726 12.12 29.0059 12.0187 28.5953 11.832C28.1846 11.6453 27.8753 11.352 27.6673 10.952C27.4806 10.5947 27.3793 10.232 27.3633 9.864C27.3526 9.49067 27.3473 9.06933 27.3473 8.6V0.959999H29.0273V8.52C29.0273 8.86667 29.0299 9.168 29.0353 9.424C29.0459 9.68 29.1019 9.896 29.2033 10.072C29.3953 10.4027 29.6993 10.592 30.1153 10.64C30.5366 10.6827 31.0299 10.664 31.5953 10.584V12ZM25.6913 4.704V3.36H31.5953V4.704H25.6913ZM36.6729 12.232C36.0755 12.232 35.5742 12.136 35.1689 11.944C34.7635 11.752 34.4329 11.5013 34.1769 11.192C33.9262 10.8773 33.7342 10.536 33.6009 10.168C33.4675 9.8 33.3769 9.44 33.3289 9.088C33.2809 8.736 33.2569 8.42667 33.2569 8.16V3.36H34.9529V7.608C34.9529 7.944 34.9795 8.29067 35.0329 8.648C35.0915 9 35.1982 9.328 35.3529 9.632C35.5129 9.936 35.7342 10.1813 36.0169 10.368C36.3049 10.5547 36.6782 10.648 37.1369 10.648C37.4355 10.648 37.7182 10.6 37.9849 10.504C38.2515 10.4027 38.4835 10.2427 38.6809 10.024C38.8835 9.80533 39.0409 9.51733 39.1529 9.16C39.2702 8.80267 39.3289 8.368 39.3289 7.856L40.3689 8.248C40.3689 9.032 40.2222 9.72533 39.9289 10.328C39.6355 10.9253 39.2142 11.392 38.6649 11.728C38.1155 12.064 37.4515 12.232 36.6729 12.232ZM39.5289 12V9.504H39.3289V3.36H41.0169V12H39.5289ZM43.2606 12V3.36H44.7486V5.456L44.5406 5.184C44.6473 4.90667 44.786 4.65333 44.9566 4.424C45.1273 4.18933 45.3246 3.99733 45.5486 3.848C45.7673 3.688 46.01 3.56533 46.2766 3.48C46.5486 3.38933 46.826 3.336 47.1086 3.32C47.3913 3.29867 47.6633 3.312 47.9246 3.36V4.928C47.642 4.85333 47.3273 4.832 46.9806 4.864C46.6393 4.896 46.3246 5.00533 46.0366 5.192C45.7646 5.368 45.5486 5.58133 45.3886 5.832C45.234 6.08267 45.122 6.36267 45.0526 6.672C44.9833 6.976 44.9486 7.29867 44.9486 7.64V12H43.2606ZM53.1239 12.24C52.2652 12.24 51.5105 12.0533 50.8599 11.68C50.2145 11.3013 49.7105 10.776 49.3479 10.104C48.9905 9.42667 48.8119 8.64267 48.8119 7.752C48.8119 6.808 48.9879 5.98933 49.3399 5.296C49.6972 4.60267 50.1932 4.06667 50.8279 3.688C51.4625 3.30933 52.2012 3.12 53.0439 3.12C53.9239 3.12 54.6732 3.32533 55.2919 3.736C55.9105 4.14133 56.3719 4.72 56.6759 5.472C56.9852 6.224 57.1079 7.11733 57.0439 8.152H55.3719V7.544C55.3612 6.54133 55.1692 5.8 54.7959 5.32C54.4279 4.84 53.8652 4.6 53.1079 4.6C52.2705 4.6 51.6412 4.864 51.2199 5.392C50.7985 5.92 50.5879 6.68267 50.5879 7.68C50.5879 8.62933 50.7985 9.36533 51.2199 9.888C51.6412 10.4053 52.2492 10.664 53.0439 10.664C53.5665 10.664 54.0172 10.5467 54.3959 10.312C54.7799 10.072 55.0785 9.73067 55.2919 9.288L56.9319 9.808C56.5959 10.5813 56.0865 11.1813 55.4039 11.608C54.7212 12.0293 53.9612 12.24 53.1239 12.24ZM50.0439 8.152V6.848H56.2119V8.152H50.0439ZM62.1428 12.232C61.0921 12.232 60.2361 12 59.5748 11.536C58.9134 11.072 58.5081 10.4187 58.3588 9.576L60.0707 9.312C60.1774 9.76 60.4228 10.1147 60.8068 10.376C61.1961 10.632 61.6788 10.76 62.2548 10.76C62.7774 10.76 63.1854 10.6533 63.4788 10.44C63.7774 10.2267 63.9268 9.93333 63.9268 9.56C63.9268 9.34133 63.8734 9.16533 63.7668 9.032C63.6654 8.89333 63.4494 8.76267 63.1188 8.64C62.7881 8.51733 62.2841 8.36533 61.6068 8.184C60.8654 7.992 60.2761 7.78667 59.8388 7.568C59.4068 7.344 59.0974 7.08533 58.9108 6.792C58.7294 6.49333 58.6388 6.13333 58.6388 5.712C58.6388 5.18933 58.7774 4.73333 59.0548 4.344C59.3321 3.95467 59.7214 3.65333 60.2228 3.44C60.7294 3.22667 61.3214 3.12 61.9988 3.12C62.6601 3.12 63.2494 3.224 63.7668 3.432C64.2841 3.64 64.7028 3.936 65.0228 4.32C65.3428 4.69867 65.5348 5.144 65.5988 5.656L63.8868 5.968C63.8281 5.552 63.6334 5.224 63.3028 4.984C62.9721 4.744 62.5428 4.61333 62.0148 4.592C61.5081 4.57067 61.0974 4.656 60.7828 4.848C60.4681 5.03467 60.3108 5.29333 60.3108 5.624C60.3108 5.816 60.3694 5.97867 60.4868 6.112C60.6094 6.24533 60.8441 6.37333 61.1908 6.496C61.5374 6.61867 62.0494 6.76533 62.7268 6.936C63.4521 7.12267 64.0281 7.33067 64.4548 7.56C64.8814 7.784 65.1854 8.05333 65.3668 8.368C65.5534 8.67733 65.6468 9.05333 65.6468 9.496C65.6468 10.3493 65.3348 11.0187 64.7108 11.504C64.0921 11.9893 63.2361 12.232 62.1428 12.232Z" fill="#33354D"/>
</svg>
