<svg width="14" height="14" viewBox="0 0 14 14" fill="none" xmlns="http://www.w3.org/2000/svg">
<path d="M3.34448 8.54866L2.35115 12.85C2.28981 13.116 2.39648 13.3927 2.62181 13.548C2.73581 13.6267 2.86781 13.6667 3.00048 13.6667C3.12915 13.6667 3.25848 13.6293 3.37048 13.5547L7.00048 11.1347L10.6305 13.5547C10.8625 13.7093 11.1671 13.7033 11.3938 13.5387C11.6191 13.374 11.7185 13.0853 11.6418 12.8173L10.4225 8.55066L13.4465 5.82933C13.6445 5.65066 13.7171 5.372 13.6318 5.12C13.5458 4.868 13.3185 4.69066 13.0531 4.66933L9.25248 4.36666L7.60781 0.725995C7.50048 0.486662 7.26248 0.333328 7.00048 0.333328C6.73848 0.333328 6.50048 0.486662 6.39315 0.725995L4.74848 4.36666L0.947812 4.66866C0.686479 4.68933 0.461812 4.86066 0.373812 5.10666C0.284479 5.35266 0.348479 5.62799 0.535146 5.81066L3.34448 8.54866ZM5.24648 5.66466C5.48848 5.64533 5.70181 5.496 5.80115 5.274L7.00048 2.61999L8.19981 5.274C8.29915 5.496 8.51248 5.64533 8.75448 5.66466L11.4025 5.87466L9.22181 7.83733C9.03248 8.00799 8.95715 8.27066 9.02648 8.516L9.86181 11.4393L7.37115 9.77866C7.14715 9.62866 6.85581 9.62866 6.63181 9.77866L4.02915 11.514L4.72915 8.48333C4.78115 8.25666 4.71181 8.01866 4.54515 7.85666L2.51981 5.882L5.24648 5.66466Z" fill="#B4B7C9"/>
</svg>
