<svg width="196" height="100" viewBox="0 0 196 100" fill="none" xmlns="http://www.w3.org/2000/svg">
<rect x="0.5" y="0.5" width="195" height="99" rx="7.5" fill="white"/>
<rect x="0.5" y="0.5" width="195" height="99" rx="7.5" stroke="#E2E5F1"/>
<path d="M62.5197 45.25C62.8797 45.25 62.9997 45.38 62.9997 45.73V53.65H67.0697C67.4197 53.65 67.5497 53.78 67.5497 54.13V54.83C67.5497 55.18 67.4197 55.31 67.0697 55.31H61.7097C61.3597 55.31 61.2197 55.18 61.2197 54.83V45.73C61.2197 45.38 61.3597 45.25 61.7097 45.25H62.5197Z" fill="#B4B7C9"/>
<path d="M71.0996 48.74C71.0996 46.43 72.5596 45.04 75.0996 45.04C77.6396 45.04 79.0996 46.43 79.0996 48.74V51.82C79.0996 54.13 77.6296 55.52 75.0996 55.52C72.5696 55.52 71.0996 54.13 71.0996 51.82V48.74ZM77.4196 48.74C77.4196 47.44 76.6096 46.74 75.1496 46.74C73.6896 46.74 72.8896 47.45 72.8896 48.74V51.84C72.8896 53.15 73.6896 53.84 75.1496 53.84C76.6096 53.84 77.4196 53.12 77.4196 51.84V48.74Z" fill="#B4B7C9"/>
<path d="M91.0097 49.8C91.3997 49.8 91.4897 49.93 91.4897 50.28V52.18C91.5003 52.6275 91.4106 53.0718 91.2272 53.4801C91.0437 53.8885 90.7713 54.2506 90.4297 54.54C89.5814 55.2155 88.5118 55.5506 87.4297 55.48C84.8397 55.48 83.4297 54.09 83.4297 51.78V48.68C83.4297 46.4 84.8897 45 87.4297 45C89.4297 45 90.7297 45.79 91.2797 47.37C91.3105 47.4294 91.327 47.4951 91.3279 47.5619C91.3288 47.6288 91.3141 47.695 91.285 47.7551C91.2559 47.8153 91.2131 47.8679 91.1601 47.9087C91.1071 47.9494 91.0453 47.9773 90.9797 47.99L90.1997 48.26C89.8597 48.38 89.7197 48.31 89.5997 47.96C89.434 47.5329 89.1307 47.1731 88.7377 46.9377C88.3447 46.7023 87.8845 46.6045 87.4297 46.66C85.9597 46.66 85.1597 47.37 85.1597 48.66V51.84C85.1597 53.15 85.9697 53.84 87.4297 53.84C88.8897 53.84 89.7897 53.17 89.7897 52.19V51.45H87.6197C87.2597 51.45 87.1297 51.31 87.1297 50.96V50.28C87.1297 49.93 87.2597 49.8 87.6197 49.8H91.0097Z" fill="#B4B7C9"/>
<path d="M95.6201 48.74C95.6201 46.43 97.0801 45.04 99.6201 45.04C102.16 45.04 103.62 46.43 103.62 48.74V51.82C103.62 54.13 102.15 55.52 99.6201 55.52C97.0901 55.52 95.6201 54.13 95.6201 51.82V48.74ZM101.93 48.74C101.93 47.44 101.12 46.74 99.6701 46.74C98.2201 46.74 97.4001 47.45 97.4001 48.74V51.84C97.4001 53.15 98.2101 53.84 99.6701 53.84C101.13 53.84 101.93 53.12 101.93 51.84V48.74Z" fill="#B4B7C9"/>
<path d="M108.33 45.54C108.33 45.32 108.4 45.25 108.62 45.25H109.08C109.3 45.25 109.35 45.32 109.35 45.54V55.02C109.35 55.24 109.35 55.31 109.08 55.31H108.62C108.4 55.31 108.33 55.24 108.33 55.02V45.54Z" fill="#B4B7C9"/>
<path d="M118.46 45.25C119.293 45.25 120.092 45.5808 120.681 46.1697C121.27 46.7585 121.6 47.5572 121.6 48.39C121.6 49.2228 121.27 50.0215 120.681 50.6103C120.092 51.1992 119.293 51.53 118.46 51.53H115.46V55.02C115.46 55.24 115.41 55.31 115.2 55.31H114.73C114.52 55.31 114.44 55.24 114.44 55.02V45.54C114.44 45.32 114.52 45.25 114.73 45.25H118.46ZM118.37 50.54C118.657 50.54 118.94 50.4836 119.205 50.3741C119.469 50.2645 119.71 50.1039 119.912 49.9015C120.114 49.6991 120.275 49.4587 120.385 49.1943C120.494 48.9298 120.55 48.6463 120.55 48.36C120.55 48.0737 120.494 47.7902 120.385 47.5257C120.275 47.2613 120.114 47.0209 119.912 46.8185C119.71 46.6161 119.469 46.4555 119.205 46.3459C118.94 46.2364 118.657 46.18 118.37 46.18H115.37V50.54H118.37Z" fill="#B4B7C9"/>
<path d="M129.41 45.0501C130.182 44.9649 130.961 45.131 131.632 45.5237C132.301 45.9165 132.827 46.5149 133.13 47.2301C133.21 47.3901 133.13 47.5201 132.97 47.6001L132.53 47.8001C132.35 47.8701 132.28 47.8601 132.17 47.6701C131.944 47.1393 131.554 46.6943 131.058 46.3995C130.562 46.1047 129.985 45.9753 129.41 46.0301C127.72 46.0301 126.8 46.7001 126.8 47.9001C126.791 48.2668 126.914 48.6248 127.147 48.9078C127.381 49.1908 127.708 49.3799 128.07 49.4401C128.608 49.6155 129.166 49.723 129.73 49.7601C130.414 49.7965 131.088 49.9347 131.73 50.1701C132.223 50.326 132.647 50.6466 132.931 51.0782C133.215 51.5098 133.342 52.026 133.29 52.5401C133.29 54.4101 131.93 55.5401 129.43 55.5401C128.61 55.6339 127.783 55.4439 127.086 55.0017C126.389 54.5596 125.865 53.8919 125.6 53.1101C125.583 53.0745 125.573 53.0354 125.572 52.9956C125.572 52.9558 125.58 52.9164 125.596 52.8801C125.612 52.8438 125.636 52.8115 125.666 52.7856C125.696 52.7596 125.732 52.7407 125.77 52.7301L126.21 52.5701C126.245 52.5559 126.282 52.5491 126.32 52.5501C126.357 52.5511 126.394 52.5599 126.428 52.5759C126.462 52.5919 126.492 52.6147 126.516 52.643C126.541 52.6713 126.559 52.7043 126.57 52.7401C126.794 53.305 127.192 53.784 127.706 54.1077C128.22 54.4313 128.824 54.5828 129.43 54.5401C131.32 54.5401 132.25 53.8801 132.25 52.5401C132.268 52.1879 132.16 51.8408 131.946 51.5606C131.732 51.2805 131.425 51.0854 131.08 51.0101C130.563 50.8558 130.029 50.7618 129.49 50.7301L128.41 50.5901C128.072 50.5184 127.739 50.4282 127.41 50.3201C127.086 50.2222 126.784 50.0626 126.52 49.8501C126.255 49.6099 126.046 49.3143 125.908 48.9842C125.769 48.6541 125.705 48.2977 125.72 47.9401C125.79 46.1901 127.1 45.0501 129.41 45.0501Z" fill="#B4B7C9"/>
<path d="M138.68 51.89C138.722 52.5972 139.033 53.2615 139.549 53.7472C140.065 54.2329 140.747 54.5033 141.455 54.5033C142.163 54.5033 142.845 54.2329 143.361 53.7472C143.877 53.2615 144.187 52.5972 144.23 51.89V45.54C144.23 45.32 144.3 45.25 144.52 45.25H144.98C145.2 45.25 145.27 45.32 145.27 45.54V51.88C145.27 54.15 143.93 55.52 141.46 55.52C138.99 55.52 137.65 54.15 137.65 51.88V45.54C137.65 45.32 137.72 45.25 137.93 45.25H138.4C138.61 45.25 138.68 45.32 138.68 45.54V51.89Z" fill="#B4B7C9"/>
<path d="M159.07 45.25C159.29 45.25 159.36 45.32 159.36 45.54V55.02C159.36 55.24 159.29 55.31 159.07 55.31H158.65C158.44 55.31 158.37 55.24 158.37 55.02V49.25C158.37 48.4105 158.427 47.5719 158.54 46.74H158.48C158.168 47.5007 157.803 48.2391 157.39 48.95L155.24 52.74C155.214 52.8058 155.168 52.862 155.109 52.9013C155.05 52.9405 154.981 52.961 154.91 52.96H154.63C154.558 52.9604 154.488 52.9397 154.427 52.9007C154.367 52.8616 154.319 52.8058 154.29 52.74L152.11 48.91C151.723 48.2093 151.389 47.4806 151.11 46.73H151.05C151.152 47.5695 151.206 48.4143 151.21 49.26V55.02C151.21 55.24 151.14 55.31 150.92 55.31H150.53C150.31 55.31 150.24 55.24 150.24 55.02V45.54C150.24 45.32 150.31 45.25 150.53 45.25H150.89C150.972 45.2424 151.055 45.2603 151.126 45.3015C151.198 45.3427 151.255 45.4051 151.29 45.48L154.79 51.7L158.27 45.54C158.38 45.33 158.44 45.3 158.66 45.3L159.07 45.25Z" fill="#B4B7C9"/>
<path d="M44.73 53.79V61.02C44.73 61.2972 44.6199 61.563 44.4239 61.7589C44.228 61.9549 43.9622 62.065 43.685 62.065C43.4079 62.065 43.1421 61.9549 42.9461 61.7589C42.7501 61.563 42.64 61.2972 42.64 61.02V53.8C42.931 54.0125 43.2798 54.1311 43.64 54.14C44.0326 54.1512 44.4173 54.0277 44.73 53.79ZM53.63 51.7C53.3648 51.7 53.1104 51.8054 52.9229 51.9929C52.7354 52.1804 52.63 52.4348 52.63 52.7V53.96C52.63 54.2372 52.7401 54.503 52.9361 54.6989C53.132 54.8949 53.3978 55.005 53.675 55.005C53.9522 55.005 54.218 54.8949 54.4139 54.6989C54.6099 54.503 54.72 54.2372 54.72 53.96V52.75C54.7278 52.6066 54.7046 52.4632 54.652 52.3296C54.5994 52.196 54.5187 52.0752 54.4152 51.9756C54.3118 51.876 54.1881 51.7998 54.0527 51.7522C53.9172 51.7047 53.773 51.6869 53.63 51.7ZM40.37 56.53C40.0102 56.5192 39.6618 56.4008 39.37 56.19V63.44C39.37 63.7185 39.4806 63.9856 39.6775 64.1825C39.8744 64.3794 40.1415 64.49 40.42 64.49C40.6985 64.49 40.9656 64.3794 41.1625 64.1825C41.3594 63.9856 41.47 63.7185 41.47 63.44V56.24C41.1435 56.4511 40.7582 56.5527 40.37 56.53ZM50.37 49.53C50.2345 49.5232 50.0991 49.5441 49.9719 49.5913C49.8448 49.6385 49.7286 49.7111 49.6303 49.8046C49.5321 49.8982 49.454 50.0107 49.4006 50.1354C49.3473 50.2601 49.3198 50.3944 49.32 50.53V56.1C49.32 56.3785 49.4306 56.6456 49.6275 56.8425C49.8245 57.0394 50.0915 57.15 50.37 57.15C50.6485 57.15 50.9156 57.0394 51.1125 56.8425C51.3094 56.6456 51.42 56.3785 51.42 56.1V50.6C51.428 50.4557 51.4046 50.3114 51.3514 50.177C51.2982 50.0426 51.2166 49.9213 51.112 49.8215C51.0074 49.7217 50.8825 49.6457 50.7458 49.5989C50.6091 49.552 50.4638 49.5353 50.32 49.55L50.37 49.53ZM47.05 51.67C46.6733 51.6674 46.3067 51.5487 46 51.33V58.6C46 58.8785 46.1106 59.1456 46.3075 59.3425C46.5045 59.5394 46.7715 59.65 47.05 59.65C47.3285 59.65 47.5955 59.5394 47.7925 59.3425C47.9894 59.1456 48.1 58.8785 48.1 58.6V51.34C47.7828 51.5763 47.3955 51.6995 47 51.69L47.05 51.67ZM38.1 57.24V36.93C38.0974 36.6824 37.9972 36.4459 37.8212 36.2718C37.6452 36.0977 37.4076 36 37.16 36H36.94C36.6924 36 36.4548 36.0977 36.2788 36.2718C36.1028 36.4459 36.0026 36.6824 36 36.93V57.24C36 57.4893 36.099 57.7284 36.2753 57.9047C36.4516 58.081 36.6907 58.18 36.94 58.18H37.16C37.4093 58.18 37.6484 58.081 37.8247 57.9047C38.001 57.7284 38.1 57.4893 38.1 57.24ZM40.48 55.76H40.26C40.0107 55.76 39.7716 55.661 39.5953 55.4847C39.419 55.3084 39.32 55.0693 39.32 54.82V39.35C39.3226 39.1024 39.4228 38.8659 39.5988 38.6918C39.7748 38.5177 40.0124 38.42 40.26 38.42H40.48C40.7276 38.42 40.9652 38.5177 41.1412 38.6918C41.3172 38.8659 41.4174 39.1024 41.42 39.35V54.84C41.42 55.0893 41.321 55.3284 41.1447 55.5047C40.9684 55.681 40.7293 55.78 40.48 55.78V55.76ZM43.79 53.38H43.56C43.3134 53.38 43.0768 53.282 42.9024 53.1076C42.728 52.9332 42.63 52.6967 42.63 52.45V41.75C42.6287 41.627 42.6518 41.505 42.6979 41.391C42.744 41.277 42.8123 41.1733 42.8988 41.0859C42.9853 40.9985 43.0883 40.9291 43.2018 40.8817C43.3153 40.8344 43.437 40.81 43.56 40.81H43.79C44.0376 40.8126 44.2741 40.9128 44.4482 41.0888C44.6224 41.2648 44.72 41.5024 44.72 41.75V52.45C44.72 52.6967 44.622 52.9332 44.4476 53.1076C44.2732 53.282 44.0367 53.38 43.79 53.38ZM47.1 50.93H46.89C46.6424 50.93 46.4048 50.8324 46.2288 50.6582C46.0528 50.4841 45.9526 50.2476 45.95 50V44.24C45.9418 44.1116 45.96 43.9829 46.0036 43.8618C46.0471 43.7408 46.1151 43.6299 46.2032 43.5362C46.2913 43.4424 46.3977 43.3678 46.5159 43.3168C46.634 43.2659 46.7613 43.2397 46.89 43.24H47.11C47.3593 43.24 47.5984 43.339 47.7747 43.5153C47.951 43.6916 48.05 43.9307 48.05 44.18V49.98C48.0513 50.1043 48.028 50.2276 47.9813 50.3428C47.9347 50.458 47.8657 50.5628 47.7782 50.6512C47.6908 50.7395 47.5868 50.8096 47.472 50.8575C47.3573 50.9054 47.2343 50.93 47.11 50.93H47.1ZM50.42 48.78H50.2C49.9507 48.78 49.7116 48.681 49.5353 48.5047C49.359 48.3284 49.26 48.0893 49.26 47.84V46.35C49.2626 46.1024 49.3628 45.8659 49.5388 45.6918C49.7148 45.5176 49.9524 45.42 50.2 45.42H50.42C50.6676 45.42 50.9052 45.5176 51.0812 45.6918C51.2572 45.8659 51.3574 46.1024 51.36 46.35V47.84C51.36 48.0876 51.2624 48.3252 51.0882 48.5012C50.9141 48.6772 50.6776 48.7774 50.43 48.78H50.42Z" fill="#B4B7C9"/>
</svg>
