<svg width="1311" height="123" viewBox="0 0 1311 123" fill="none" xmlns="http://www.w3.org/2000/svg">
<g filter="url(#filter0_d_4632_11188)">
<rect x="4" y="7" width="196" height="100" rx="8" fill="white" shape-rendering="crispEdges"/>
<rect x="4.5" y="7.5" width="195" height="99" rx="7.5" stroke="#E2E5F1" shape-rendering="crispEdges"/>
<path d="M45.9414 69.8251H71.5914V44.175H45.9414V69.8251ZM66.6544 54.532H61.2344V49.112H66.6544V54.532ZM50.8774 49.112H56.3004V59.468H66.6544V64.8881H50.8774V49.112ZM88.2944 44.175C85.7578 44.175 83.2782 44.9272 81.1692 46.3365C79.0601 47.7457 77.4163 49.7487 76.4456 52.0921C75.4749 54.4356 75.221 57.0142 75.7158 59.502C76.2107 61.9898 77.4321 64.275 79.2257 66.0686C81.0193 67.8623 83.3045 69.0837 85.7923 69.5786C88.2802 70.0735 90.8588 69.8195 93.2023 68.8489C95.5458 67.8782 97.5487 66.2344 98.958 64.1252C100.367 62.0161 101.119 59.5365 101.119 57C101.115 53.5998 99.7629 50.3401 97.3586 47.9358C94.9543 45.5315 91.6946 44.179 88.2944 44.175ZM88.2944 64.8881C86.7343 64.8881 85.2092 64.4254 83.912 63.5586C82.6149 62.6919 81.6038 61.46 81.0068 60.0186C80.4098 58.5773 80.2536 56.9913 80.5579 55.4611C80.8623 53.931 81.6136 52.5255 82.7167 51.4224C83.8199 50.3192 85.2254 49.568 86.7555 49.2636C88.2856 48.9593 89.8716 49.1155 91.313 49.7125C92.7543 50.3095 93.9863 51.3205 94.853 52.6177C95.7198 53.9148 96.1824 55.4399 96.1824 57C96.1792 59.0911 95.3471 61.0956 93.8685 62.5742C92.3899 64.0528 90.3854 64.8848 88.2944 64.8881ZM147.013 44.175C144.476 44.1749 141.997 44.9269 139.888 46.336C137.779 47.7451 136.135 49.748 135.164 52.0914C134.193 54.4348 133.939 57.0136 134.434 59.5014C134.928 61.9893 136.15 64.2747 137.943 66.0683C139.737 67.862 142.022 69.0837 144.51 69.5786C146.997 70.0735 149.576 69.8195 151.92 68.8489C154.263 67.8783 156.266 66.2344 157.675 64.1253C159.085 62.0162 159.837 59.5366 159.837 57C159.833 53.6 158.481 50.3404 156.077 47.9361C153.673 45.5319 150.413 44.1793 147.013 44.175ZM147.013 64.8881C145.453 64.8883 143.928 64.4257 142.631 63.5591C141.334 62.6925 140.322 61.4606 139.725 60.0193C139.128 58.578 138.972 56.9919 139.276 55.4617C139.58 53.9316 140.331 52.526 141.434 51.4227C142.538 50.3195 143.943 49.5681 145.473 49.2637C147.003 48.9592 148.589 49.1154 150.03 49.7124C151.472 50.3094 152.704 51.3204 153.571 52.6176C154.437 53.9148 154.9 55.4399 154.9 57C154.897 59.0909 154.065 61.0952 152.586 62.5738C151.108 64.0524 149.104 64.8846 147.013 64.8881ZM117.653 44.175C115.117 44.175 112.637 44.9272 110.528 46.3365C108.419 47.7457 106.775 49.7487 105.805 52.0921C104.834 54.4356 104.58 57.0142 105.075 59.502C105.57 61.9898 106.791 64.275 108.585 66.0686C110.378 67.8623 112.664 69.0837 115.151 69.5786C117.639 70.0735 120.218 69.8195 122.561 68.8489C124.905 67.8782 126.908 66.2344 128.317 64.1252C129.726 62.0161 130.478 59.5365 130.478 57C130.474 53.5998 129.122 50.3401 126.718 47.9358C124.313 45.5315 121.054 44.179 117.653 44.175ZM117.653 64.8881C116.2 64.8888 114.774 64.4879 113.534 63.7295C112.294 62.9712 111.288 61.8852 110.626 60.591C109.965 59.2968 109.673 57.8448 109.785 56.3956C109.896 54.9463 110.406 53.556 111.257 52.3781C112.109 51.2003 113.27 50.2807 114.611 49.7208C115.952 49.1608 117.422 48.9825 118.859 49.2053C120.295 49.4281 121.642 50.0435 122.751 50.9835C123.859 51.9234 124.687 53.1515 125.141 54.532H117.653V59.468H125.141C124.621 61.0433 123.617 62.4148 122.273 63.3876C120.929 64.3605 119.313 64.8853 117.653 64.8881Z" fill="#B4B7C9"/>
</g>
<rect x="224.5" y="7.5" width="195" height="99" rx="7.5" fill="white"/>
<rect x="224.5" y="7.5" width="195" height="99" rx="7.5" stroke="#E2E5F1"/>
<path d="M274.419 55.371C274.04 55.7523 273.75 56.2125 273.569 56.7187C273.388 57.225 273.321 57.7649 273.373 58.3L273.355 58.282C273.408 58.9119 273.323 59.5457 273.106 60.1394C272.889 60.733 272.545 61.2721 272.098 61.7191C271.651 62.166 271.112 62.5101 270.518 62.7271C269.925 62.9442 269.291 63.0292 268.661 62.976L268.679 62.994C267.926 62.9239 267.169 63.0878 266.512 63.4635C265.855 63.8392 265.33 64.4083 265.009 65.0933C264.687 65.7783 264.585 66.5457 264.715 67.2911C264.846 68.0364 265.203 68.7233 265.739 69.2581C266.274 69.7929 266.961 70.1496 267.707 70.2795C268.452 70.4095 269.219 70.3063 269.904 69.9842C270.589 69.662 271.157 69.1366 271.532 68.4794C271.908 67.8222 272.071 67.0654 272 66.312L272.019 66.33C271.966 65.7002 272.051 65.0663 272.268 64.4726C272.485 63.879 272.829 63.3399 273.276 62.8929C273.723 62.446 274.262 62.1019 274.856 61.8849C275.449 61.6678 276.083 61.5828 276.713 61.636L276.694 61.618C277.309 61.6733 277.929 61.5724 278.495 61.3246C279.061 61.0768 279.555 60.6901 279.932 60.2004C280.309 59.7107 280.556 59.1337 280.651 58.5231C280.745 57.9124 280.684 57.2878 280.473 56.707C280.262 56.1263 279.907 55.6083 279.442 55.201C278.978 54.7937 278.418 54.5103 277.814 54.3771C277.211 54.2439 276.584 54.2651 275.991 54.4388C275.398 54.6126 274.858 54.9332 274.422 55.371H274.419Z" fill="#B4B7C9"/>
<path d="M267.042 60.636L267.023 60.618C267.558 60.6719 268.099 60.6062 268.606 60.4256C269.113 60.245 269.573 59.9541 269.954 59.5738C270.334 59.1935 270.626 58.7333 270.807 58.2266C270.988 57.7199 271.054 57.1794 271 56.644L271.019 56.662C270.966 56.0321 271.051 55.3983 271.268 54.8046C271.485 54.211 271.829 53.6719 272.276 53.2249C272.723 52.778 273.262 52.4339 273.856 52.2169C274.449 51.9998 275.083 51.9148 275.713 51.968L275.694 51.95C276.448 52.0208 277.205 51.8574 277.862 51.4821C278.519 51.1068 279.044 50.538 279.366 49.8531C279.688 49.1682 279.791 48.4007 279.661 47.6552C279.531 46.9097 279.174 46.2225 278.639 45.6874C278.104 45.1522 277.416 44.7952 276.671 44.665C275.925 44.5347 275.158 44.6377 274.473 44.9597C273.788 45.2817 273.219 45.8071 272.844 46.4643C272.469 47.1215 272.305 47.8785 272.376 48.632L272.358 48.613C272.411 49.2429 272.327 49.8768 272.11 50.4705C271.893 51.0643 271.549 51.6035 271.102 52.0505C270.655 52.4974 270.115 52.8415 269.522 53.0585C268.928 53.2755 268.294 53.3603 267.664 53.307L267.682 53.326C267.147 53.2721 266.606 53.3378 266.099 53.5184C265.593 53.6989 265.132 53.9899 264.752 54.3702C264.371 54.7505 264.08 55.2107 263.899 55.7174C263.718 56.2241 263.652 56.7646 263.705 57.3L263.687 57.282C263.74 57.9118 263.655 58.5456 263.438 59.1392C263.221 59.7327 262.877 60.2718 262.43 60.7187C261.983 61.1656 261.444 61.5096 260.85 61.7268C260.257 61.9439 259.623 62.029 258.993 61.976L259.011 61.994C258.258 61.9232 257.501 62.0866 256.843 62.4619C256.186 62.8372 255.661 63.406 255.339 64.0909C255.017 64.7758 254.914 65.5433 255.044 66.2888C255.174 67.0343 255.531 67.7215 256.067 68.2566C256.602 68.7918 257.289 69.1488 258.034 69.279C258.78 69.4092 259.547 69.3063 260.232 68.9843C260.917 68.6623 261.486 68.1369 261.861 67.4797C262.237 66.8224 262.4 66.0655 262.329 65.312L262.348 65.33C262.295 64.7001 262.38 64.0663 262.597 63.4726C262.814 62.879 263.158 62.3399 263.605 61.8929C264.052 61.446 264.591 61.1019 265.185 60.8849C265.778 60.6678 266.412 60.5828 267.042 60.636Z" fill="#B4B7C9"/>
<path d="M260.34 58.6289C260.719 58.2477 261.009 57.7875 261.19 57.2812C261.371 56.7749 261.437 56.2349 261.385 55.6999L261.404 55.7179C261.351 55.0879 261.436 54.4538 261.653 53.86C261.87 53.2662 262.215 52.727 262.662 52.28C263.109 51.8331 263.648 51.4891 264.242 51.2721C264.836 51.0552 265.47 50.9705 266.1 51.0239L266.081 51.0059C266.834 51.0765 267.591 50.913 268.248 50.5378C268.905 50.1625 269.43 49.5938 269.752 48.9092C270.074 48.2245 270.177 47.4573 270.046 46.712C269.916 45.9668 269.559 45.2799 269.024 44.7449C268.489 44.21 267.802 43.8531 267.057 43.7229C266.312 43.5926 265.545 43.6954 264.86 44.0173C264.175 44.3391 263.607 44.8643 263.231 45.5212C262.856 46.1781 262.693 46.9347 262.763 47.6879L262.745 47.6699C262.798 48.2998 262.713 48.9337 262.496 49.5273C262.279 50.1209 261.935 50.66 261.488 51.107C261.041 51.554 260.502 51.898 259.909 52.115C259.315 52.3321 258.681 52.4171 258.051 52.3639L258.069 52.3819C257.454 52.3267 256.834 52.4278 256.268 52.6757C255.702 52.9236 255.208 53.3104 254.831 53.8002C254.455 54.2899 254.208 54.8669 254.113 55.4775C254.019 56.0882 254.08 56.7128 254.292 57.2934C254.503 57.8741 254.857 58.392 255.322 58.7992C255.787 59.2065 256.347 59.4898 256.95 59.623C257.553 59.7561 258.181 59.7348 258.774 59.5611C259.367 59.3873 259.906 59.0667 260.342 58.6289H260.34Z" fill="#B4B7C9"/>
<path d="M291.317 48.655H294.287V63.108H291.317V48.655Z" fill="#B4B7C9"/>
<path d="M295.969 58.1591C295.965 57.1205 296.269 56.1039 296.843 55.2383C297.417 54.3727 298.235 53.6969 299.193 53.2966C300.152 52.8962 301.207 52.7893 302.227 52.9894C303.246 53.1895 304.183 53.6875 304.919 54.4205C305.654 55.1534 306.156 56.0883 306.36 57.1067C306.565 58.1251 306.462 59.1812 306.065 60.1412C305.669 61.1011 304.996 61.9219 304.133 62.4993C303.27 63.0768 302.255 63.3851 301.216 63.3851C300.526 63.393 299.842 63.2633 299.204 63.0037C298.565 62.7441 297.984 62.3598 297.496 61.8733C297.007 61.3867 296.62 60.8076 296.358 60.1699C296.096 59.5322 295.964 58.8486 295.969 58.1591ZM303.493 58.1591C303.48 57.7114 303.336 57.2773 303.079 56.911C302.821 56.5448 302.461 56.2626 302.044 56.0999C301.626 55.9371 301.17 55.9009 300.733 55.9959C300.295 56.0909 299.895 56.3127 299.583 56.6338C299.271 56.9548 299.06 57.3608 298.977 57.801C298.894 58.2411 298.943 58.6959 299.117 59.1085C299.292 59.5211 299.584 59.8731 299.957 60.1206C300.33 60.3681 300.768 60.5001 301.216 60.5001C301.523 60.5083 301.828 60.4528 302.112 60.3372C302.396 60.2216 302.653 60.0484 302.867 59.8285C303.081 59.6085 303.247 59.3466 303.355 59.0593C303.463 58.772 303.51 58.4655 303.493 58.1591Z" fill="#B4B7C9"/>
<path d="M318.3 53.2091V62.6091C318.3 65.9351 315.706 67.3411 313.073 67.3411C312.146 67.4105 311.218 67.2232 310.39 66.7999C309.562 66.3765 308.867 65.7334 308.381 64.9411L310.915 63.4761C311.119 63.8891 311.445 64.2298 311.848 64.4527C312.252 64.6755 312.714 64.7699 313.172 64.7231C313.465 64.7637 313.763 64.7379 314.045 64.6476C314.327 64.5573 314.584 64.4048 314.799 64.2015C315.014 63.9981 315.18 63.7491 315.286 63.4727C315.391 63.1964 315.433 62.8999 315.409 62.6051V61.7001C315.061 62.1256 314.619 62.4637 314.116 62.6872C313.614 62.9107 313.067 63.0134 312.518 62.9871C311.212 62.9459 309.973 62.3981 309.063 61.4595C308.154 60.521 307.646 59.2654 307.646 57.9586C307.646 56.6518 308.154 55.3962 309.063 54.4577C309.973 53.5191 311.212 52.9713 312.518 52.9301C313.067 52.9038 313.614 53.0065 314.116 53.23C314.619 53.4535 315.061 53.7916 315.409 54.2171V53.2071L318.3 53.2091ZM315.41 57.9601C315.43 57.4815 315.306 57.0078 315.055 56.6001C314.803 56.1923 314.435 55.8692 313.999 55.6723C313.562 55.4753 313.076 55.4136 312.604 55.495C312.132 55.5764 311.695 55.7972 311.35 56.1291C311.004 56.4609 310.766 56.8885 310.665 57.3569C310.565 57.8253 310.607 58.3131 310.786 58.7574C310.965 59.2017 311.273 59.5823 311.67 59.8501C312.068 60.1179 312.536 60.2607 313.015 60.2601C313.327 60.2819 313.64 60.2381 313.934 60.1315C314.228 60.0249 314.497 59.8578 314.722 59.6412C314.948 59.4245 315.126 59.163 315.244 58.8734C315.363 58.5839 315.419 58.2728 315.41 57.9601Z" fill="#B4B7C9"/>
<path d="M319.982 58.1591C319.977 57.1205 320.282 56.1039 320.856 55.2383C321.43 54.3727 322.248 53.6969 323.206 53.2966C324.164 52.8962 325.22 52.7893 326.239 52.9894C327.258 53.1895 328.195 53.6875 328.931 54.4205C329.667 55.1534 330.169 56.0883 330.373 57.1067C330.577 58.1251 330.475 59.1812 330.078 60.1412C329.682 61.1011 329.009 61.9219 328.146 62.4993C327.282 63.0768 326.267 63.3851 325.229 63.3851C324.539 63.393 323.855 63.2633 323.216 63.0037C322.577 62.7441 321.997 62.3598 321.508 61.8733C321.02 61.3867 320.633 60.8076 320.371 60.1699C320.109 59.5322 319.976 58.8486 319.982 58.1591ZM327.506 58.1591C327.493 57.7114 327.349 57.2773 327.091 56.911C326.834 56.5448 326.474 56.2626 326.056 56.0999C325.639 55.9371 325.183 55.9009 324.745 55.9959C324.308 56.0909 323.908 56.3127 323.595 56.6338C323.283 56.9548 323.072 57.3608 322.99 57.801C322.907 58.2411 322.956 58.6959 323.13 59.1085C323.304 59.5211 323.596 59.8731 323.969 60.1206C324.343 60.3681 324.781 60.5001 325.229 60.5001C325.535 60.5083 325.84 60.4528 326.125 60.3372C326.409 60.2216 326.666 60.0484 326.88 59.8285C327.094 59.6085 327.26 59.3466 327.368 59.0593C327.475 58.772 327.522 58.4655 327.506 58.1591Z" fill="#B4B7C9"/>
<path d="M331.861 50.5559C331.861 50.2035 331.966 49.8589 332.162 49.5659C332.357 49.2729 332.636 49.0444 332.961 48.9096C333.287 48.7747 333.645 48.7394 333.991 48.8082C334.337 48.8769 334.654 49.0466 334.903 49.2959C335.153 49.5451 335.322 49.8626 335.391 50.2083C335.46 50.5539 335.425 50.9122 335.29 51.2379C335.155 51.5635 334.926 51.8418 334.633 52.0376C334.34 52.2334 333.996 52.3379 333.643 52.3379C333.172 52.3332 332.722 52.144 332.388 51.8108C332.055 51.4776 331.866 51.0271 331.861 50.5559ZM332.161 53.2089H335.132V63.1089H332.157L332.161 53.2089Z" fill="#B4B7C9"/>
<path d="M347.956 58.159C347.99 58.8133 347.895 59.4679 347.675 60.0852C347.456 60.7025 347.116 61.2703 346.676 61.756C346.237 62.2416 345.705 62.6356 345.113 62.9152C344.52 63.1947 343.878 63.3544 343.224 63.385C342.673 63.415 342.123 63.3222 341.613 63.1133C341.103 62.9043 340.646 62.5845 340.275 62.177V67.068H337.305V53.209H340.275V54.139C340.646 53.7318 341.103 53.4122 341.613 53.2035C342.123 52.9947 342.673 52.902 343.224 52.932C343.878 52.9625 344.52 53.1221 345.113 53.4017C345.706 53.6813 346.237 54.0753 346.677 54.5611C347.117 55.0469 347.456 55.6149 347.676 56.2324C347.895 56.8498 347.99 57.5046 347.956 58.159ZM344.986 58.159C344.974 57.6957 344.826 57.2461 344.56 56.8664C344.294 56.4868 343.922 56.194 343.491 56.0248C343.059 55.8555 342.588 55.8172 342.135 55.9148C341.681 56.0123 341.267 56.2413 340.944 56.5731C340.62 56.905 340.402 57.3248 340.315 57.7803C340.229 58.2357 340.279 58.7063 340.46 59.1334C340.64 59.5605 340.942 59.9249 341.328 60.1812C341.714 60.4374 342.167 60.5741 342.631 60.574C342.949 60.5882 343.266 60.5349 343.563 60.4177C343.859 60.3006 344.127 60.1221 344.349 59.8941C344.572 59.666 344.743 59.3936 344.853 59.0946C344.963 58.7956 345.008 58.4767 344.986 58.159Z" fill="#B4B7C9"/>
<path d="M357.121 60.1381C357.121 62.4151 355.142 63.3851 353.004 63.3851C352.14 63.4633 351.273 63.2807 350.514 62.8606C349.755 62.4406 349.14 61.8026 348.747 61.0291L351.32 59.5641C351.424 59.9216 351.648 60.2327 351.953 60.4452C352.259 60.6578 352.629 60.7591 353 60.7321C353.712 60.7321 354.069 60.5141 354.069 60.1191C354.069 59.0291 349.198 59.6041 349.198 56.1791C349.198 54.0201 351.02 52.9321 353.079 52.9321C353.853 52.9076 354.619 53.0912 355.298 53.4637C355.977 53.8363 356.544 54.3841 356.939 55.0501L354.405 56.4161C354.294 56.1568 354.109 55.9359 353.873 55.781C353.637 55.6261 353.361 55.5441 353.079 55.5451C352.564 55.5451 352.247 55.7451 352.247 56.0991C352.251 57.2281 357.121 56.4751 357.121 60.1381Z" fill="#B4B7C9"/>
<path d="M367.97 53.209V63.109H365V62.178C364.657 62.5888 364.222 62.9125 363.73 63.1225C363.238 63.3325 362.704 63.4228 362.17 63.386C360.17 63.386 358.47 61.961 358.47 59.286V53.209H361.44V58.851C361.415 59.0868 361.442 59.3252 361.519 59.5495C361.595 59.7739 361.72 59.9789 361.884 60.1502C362.048 60.3215 362.247 60.455 362.468 60.5415C362.688 60.628 362.925 60.6654 363.162 60.651C364.251 60.651 365.003 60.018 365.003 58.612V53.212L367.97 53.209Z" fill="#B4B7C9"/>
<path d="M385 57.03V63.108H382.03V57.287C382.03 56.297 381.555 55.664 380.605 55.664C379.615 55.664 379.06 56.357 379.06 57.525V63.108H376.091V57.287C376.091 56.297 375.616 55.664 374.665 55.664C373.675 55.664 373.121 56.357 373.121 57.525V63.108H370.151V53.208H373.121V54.118C373.429 53.7143 373.833 53.3941 374.296 53.1868C374.76 52.9794 375.268 52.8915 375.774 52.931C376.282 52.9061 376.788 53.0134 377.243 53.2423C377.697 53.4711 378.084 53.8139 378.367 54.237C378.696 53.7943 379.132 53.4423 379.634 53.2139C380.136 52.9855 380.688 52.8882 381.238 52.931C383.511 52.932 385 54.555 385 57.03Z" fill="#B4B7C9"/>
<path d="M387.512 53.148C388.729 53.148 389.716 52.1612 389.716 50.944C389.716 49.7268 388.729 48.74 387.512 48.74C386.295 48.74 385.308 49.7268 385.308 50.944C385.308 52.1612 386.295 53.148 387.512 53.148Z" fill="#B4B7C9"/>
<rect x="444.5" y="7.5" width="195" height="99" rx="7.5" fill="white"/>
<rect x="444.5" y="7.5" width="195" height="99" rx="7.5" stroke="#E2E5F1"/>
<path d="M541.693 64.3741H536.573V50.6861H541.693V64.3741ZM537.073 63.8741H541.193V51.1861H537.073V63.8741ZM548.817 64.3741H543.8V50.6861H554.282C555.784 50.5645 557.279 50.9861 558.496 51.8741C559.02 52.3534 559.426 52.9473 559.683 53.6094C559.939 54.2715 560.039 54.9839 559.975 55.6911C560.05 56.9131 559.661 58.1183 558.886 59.0661C557.969 60.1181 556.443 60.6601 554.351 60.6791C553.824 60.6931 549.875 60.6791 548.82 60.6791L548.817 64.3741ZM544.297 63.8741H548.317V60.1741H548.568C548.619 60.1741 553.746 60.1901 554.339 60.1741C556.288 60.1571 557.689 59.6741 558.508 58.7311C559.198 57.8736 559.54 56.7883 559.468 55.6901C559.53 55.0565 559.444 54.4172 559.219 53.8218C558.993 53.2265 558.634 52.6911 558.168 52.2571C557.04 51.4472 555.659 51.067 554.275 51.1851H544.3L544.297 63.8741ZM553.22 57.6041H548.283V53.8781H553.253C553.605 53.8294 553.964 53.8705 554.296 53.9976C554.629 54.1247 554.923 54.3337 555.153 54.6051C555.362 54.952 555.46 55.3541 555.435 55.7581C555.454 56.1332 555.373 56.5066 555.2 56.8401C554.963 57.126 554.656 57.3461 554.309 57.4792C553.963 57.6123 553.588 57.6539 553.22 57.6001V57.6041ZM548.783 57.1041H553.22C554.04 57.1041 554.548 56.9331 554.773 56.5811C554.897 56.3253 554.953 56.0419 554.936 55.7581C554.958 55.4602 554.893 55.1622 554.75 54.9001L554.744 54.8911C554.506 54.5411 554.033 54.3781 553.253 54.3781H548.783V57.1041ZM569.1 64.5761C564.61 64.5761 561.93 63.4611 560.909 61.1681C560.742 60.7252 560.629 60.2639 560.571 59.7941L560.527 59.5061H565.869L565.904 59.7161C565.945 59.9293 566.036 60.13 566.168 60.3021C566.379 60.5571 567.083 60.9851 569.419 60.9851C572.227 60.9851 572.227 60.4921 572.227 60.2271C572.227 59.7801 571.902 59.6271 569.612 59.3831L569.177 59.3421C568.315 59.2611 567.225 59.1581 566.727 59.1151C562.527 58.7351 560.652 57.4301 560.652 54.8851C560.652 52.2121 563.843 50.4851 568.782 50.4851C572.811 50.4851 575.407 51.5471 576.496 53.6441C576.754 54.1319 576.928 54.6601 577.009 55.2061L577.044 55.4871H571.696L571.674 55.2611C571.653 55.0845 571.578 54.9188 571.458 54.7871C571.258 54.5191 570.626 54.0761 568.664 54.0761C566.255 54.0761 565.923 54.3841 565.923 54.7161C565.923 55.1591 566.684 55.3161 569.123 55.5771C570.14 55.6601 571.775 55.8281 572.335 55.8961C575.856 56.2781 577.427 57.5511 577.427 60.0251C577.428 62.1001 575.983 64.5761 569.1 64.5761ZM561.111 60.0061C561.161 60.3359 561.247 60.6591 561.368 60.9701C562.298 63.0591 564.828 64.0761 569.1 64.0761C572.672 64.0761 576.931 63.3761 576.931 60.0251C576.931 57.8321 575.541 56.7461 572.282 56.3931C571.722 56.3251 570.097 56.1581 569.082 56.0741C566.482 55.7921 565.425 55.6421 565.425 54.7161C565.425 53.7581 566.564 53.5761 568.666 53.5761C570.327 53.5761 571.4 53.8761 571.855 54.4811C571.979 54.6302 572.073 54.8021 572.131 54.9871H576.465C576.378 54.6004 576.24 54.2268 576.055 53.8761C575.055 51.9571 572.612 50.9851 568.784 50.9851C564.149 50.9851 561.154 52.5161 561.154 54.8851C561.154 57.1451 562.835 58.2611 566.773 58.6171C567.273 58.6601 568.362 58.7631 569.226 58.8451L569.664 58.8861C571.791 59.1101 572.729 59.2501 572.729 60.2271C572.729 61.2791 571.516 61.4851 569.421 61.4851C567.483 61.4851 566.259 61.1941 565.786 60.6211C565.64 60.4384 565.53 60.2297 565.462 60.0061H561.111ZM586.927 64.5591C581.707 64.5591 578.827 62.4481 578.827 58.6141V50.6861H583.879V58.6141C583.879 59.9291 585.056 60.6831 587.107 60.6831C589.067 60.6831 590.284 59.8961 590.284 58.6311V50.6861H595.284V59.0341C595.289 62.5451 592.24 64.5591 586.924 64.5591H586.927ZM579.327 51.1861V58.6141C579.327 63.3521 584.085 64.0591 586.927 64.0591C589.865 64.0591 594.792 63.4061 594.792 59.0341V51.1861H590.792V58.6311C590.792 60.1811 589.348 61.1831 587.115 61.1831C584.781 61.1831 583.387 60.2231 583.387 58.6141V51.1861H579.327ZM616.472 64.3741H611.704V58.1941L609 64.3741H604.841L602.165 58.2061V64.3741H597.38V50.6861H603.674L606.944 58.2331L610.372 50.6861H616.478L616.472 64.3741ZM612.204 63.8741H615.972V51.1861H610.69L606.928 59.4651L603.342 51.1861H597.876V63.8741H601.661V55.8001L605.161 63.8771H608.661L612.198 55.8121L612.204 63.8741ZM472.054 50.9361H467.5V64.1241H480.084V60.6131H472.054V50.9361ZM489.276 50.6361C483.463 50.6361 480.406 53.3911 480.406 57.4361C480.406 62.0061 483.615 64.3241 489.276 64.3241C495.508 64.3241 498.129 61.6361 498.129 57.4361C498.129 53.1711 495.172 50.6341 489.276 50.6341V50.6361ZM489.259 54.0631C489.655 54.0612 490.05 54.0843 490.443 54.1321L485.352 59.2231C485.111 58.6782 484.994 58.0867 485.008 57.4911C485.008 55.4221 486.05 54.0611 489.259 54.0611V54.0631ZM489.276 60.9511C488.895 60.9528 488.514 60.9314 488.135 60.8871L493.235 55.7871C493.467 56.323 493.578 56.9034 493.56 57.4871C493.56 59.5001 492.6 60.9491 489.276 60.9491V60.9511ZM507.152 59.1511H511.839C511.77 59.4764 511.626 59.7811 511.419 60.0411C510.447 60.8327 509.207 61.2179 507.958 61.1161C507.329 61.1834 506.693 61.1147 506.093 60.9147C505.494 60.7148 504.944 60.3882 504.481 59.9571C504.007 59.262 503.782 58.4272 503.842 57.5881C503.765 56.7088 504.01 55.8316 504.531 55.1191C505.186 54.3791 506.295 54.0601 507.925 54.0601C508.962 53.9742 509.998 54.2406 510.865 54.8161C511.138 55.0332 511.343 55.325 511.453 55.6561H515.8C515.768 55.1106 515.637 54.5754 515.413 54.0771C514.372 51.9601 511.952 50.7001 507.837 50.7001C504.258 50.7001 501.856 51.7921 500.529 53.4391C499.653 54.6285 499.203 56.0785 499.252 57.5551C499.195 59.0651 499.634 60.5522 500.5 61.7901C501.811 63.4901 504.146 64.3261 506.952 64.3261C508.818 64.4562 510.67 63.9337 512.193 62.8481L512.311 64.1241H515.922V56.3121H507.152V59.1511ZM526.171 50.6331C520.359 50.6331 517.301 53.3881 517.301 57.4331C517.301 62.0031 520.509 64.3211 526.171 64.3211C532.404 64.3211 535.025 61.6331 535.025 57.4331C535.025 53.1711 532.068 50.6341 526.171 50.6341V50.6331ZM526.155 54.0601C526.54 54.059 526.925 54.081 527.308 54.1261L522.237 59.2001C522.004 58.6612 521.89 58.0782 521.904 57.4911C521.9 55.4221 522.946 54.0611 526.155 54.0611V54.0601ZM526.171 60.9481C525.78 60.9498 525.389 60.927 525 60.8801L530.117 55.7621C530.358 56.3051 530.473 56.8954 530.454 57.4891C530.456 59.5001 529.5 60.9491 526.171 60.9491V60.9481Z" fill="#B4B7C9"/>
<rect x="664.5" y="7.5" width="195" height="99" rx="7.5" fill="white"/>
<rect x="664.5" y="7.5" width="195" height="99" rx="7.5" stroke="#E2E5F1"/>
<path d="M710.45 46.6499V42.3999H697.05V71.5999H710.45V67.3499C707.705 67.3499 705.072 66.2594 703.131 64.3184C701.19 62.3774 700.1 59.7449 700.1 56.9999C700.1 54.2549 701.19 51.6223 703.131 49.6814C705.072 47.7404 707.705 46.6499 710.45 46.6499Z" fill="#B4B7C9"/>
<path d="M710.45 46.6499V67.3499C713.195 67.3499 715.828 66.2594 717.769 64.3184C719.71 62.3774 720.8 59.7449 720.8 56.9999C720.8 54.2549 719.71 51.6223 717.769 49.6814C715.828 47.7404 713.195 46.6499 710.45 46.6499Z" fill="#B4B7C9"/>
<path d="M728.32 49.25H731.32V63.7H728.32V49.25Z" fill="#B4B7C9"/>
<path d="M733 58.7499C733 57.7103 733.309 56.6941 733.887 55.8301C734.466 54.9661 735.287 54.2932 736.248 53.8967C737.209 53.5003 738.267 53.3981 739.286 53.6031C740.305 53.8081 741.24 54.3111 741.973 55.0483C742.706 55.7856 743.204 56.7238 743.403 57.7442C743.602 58.7646 743.494 59.8211 743.092 60.7799C742.69 61.7386 742.013 62.5565 741.145 63.1297C740.278 63.703 739.26 64.0058 738.22 63.9999C737.531 64.0053 736.847 63.873 736.21 63.6106C735.572 63.3483 734.993 62.9613 734.507 62.4724C734.02 61.9834 733.637 61.4022 733.378 60.763C733.12 60.1238 732.991 59.4394 733 58.7499ZM740.52 58.7499C740.509 58.3017 740.365 57.8669 740.107 57.5C739.85 57.133 739.49 56.8501 739.072 56.6867C738.655 56.5233 738.198 56.4866 737.76 56.5813C737.322 56.6759 736.921 56.8976 736.608 57.2188C736.295 57.5399 736.084 57.9461 736.001 58.3867C735.918 58.8273 735.966 59.2826 736.14 59.6957C736.315 60.1088 736.607 60.4615 736.98 60.7094C737.354 60.9574 737.792 61.0897 738.24 61.0899C738.546 61.0959 738.849 61.0388 739.131 60.9222C739.413 60.8057 739.668 60.6322 739.881 60.4126C740.093 60.193 740.257 59.9319 740.364 59.6459C740.471 59.3598 740.517 59.0548 740.5 58.7499H740.52Z" fill="#B4B7C9"/>
<path d="M755.31 53.8001V63.2101C755.31 66.5301 752.71 67.9401 750.08 67.9401C749.153 68.0162 748.222 67.8319 747.394 67.4079C746.565 66.9839 745.871 66.337 745.39 65.5401L747.92 64.0801C748.125 64.4935 748.451 64.8345 748.855 65.0578C749.259 65.2811 749.721 65.3761 750.18 65.3301C750.473 65.3661 750.77 65.3371 751.049 65.2451C751.329 65.153 751.586 65.0003 751.8 64.7977C752.014 64.5951 752.18 64.3478 752.288 64.0733C752.395 63.7989 752.44 63.5041 752.42 63.2101V62.3001C752.071 62.7234 751.628 63.0594 751.127 63.2816C750.625 63.5038 750.078 63.606 749.53 63.5801C748.204 63.5801 746.932 63.0533 745.995 62.1156C745.057 61.178 744.53 59.9062 744.53 58.5801C744.53 57.254 745.057 55.9823 745.995 55.0446C746.932 54.1069 748.204 53.5801 749.53 53.5801C750.078 53.5542 750.625 53.6564 751.127 53.8786C751.628 54.1008 752.071 54.4368 752.42 54.8601V53.8601L755.31 53.8001ZM752.42 58.5501C752.44 58.0717 752.317 57.5982 752.065 57.1906C751.814 56.783 751.447 56.4599 751.01 56.2628C750.574 56.0657 750.088 56.0037 749.616 56.0847C749.144 56.1657 748.707 56.386 748.362 56.7173C748.016 57.0486 747.777 57.4758 747.676 57.9439C747.575 58.412 747.617 58.8995 747.795 59.3439C747.973 59.7883 748.281 60.1692 748.677 60.4376C749.074 60.706 749.541 60.8497 750.02 60.8501C750.333 60.8726 750.646 60.8293 750.941 60.7231C751.236 60.6168 751.505 60.4499 751.731 60.2331C751.957 60.0164 752.135 59.7546 752.254 59.4647C752.373 59.1748 752.429 58.8632 752.42 58.5501Z" fill="#B4B7C9"/>
<path d="M757 58.75C757 57.7112 757.309 56.6958 757.886 55.8322C758.463 54.9686 759.284 54.2957 760.244 53.8987C761.203 53.5016 762.26 53.3982 763.278 53.6016C764.297 53.805 765.232 54.306 765.966 55.0412C766.7 55.7765 767.199 56.7129 767.401 57.7319C767.602 58.751 767.497 59.8069 767.098 60.766C766.699 61.7252 766.024 62.5444 765.16 63.1201C764.295 63.6958 763.279 64.002 762.24 64C761.55 64.0067 760.864 63.8754 760.225 63.6138C759.585 63.3522 759.005 62.9656 758.517 62.4766C758.029 61.9876 757.643 61.4061 757.383 60.7662C757.122 60.1263 756.992 59.4408 757 58.75ZM764.52 58.75C764.509 58.3014 764.365 57.8662 764.107 57.499C763.849 57.1319 763.488 56.849 763.07 56.6859C762.652 56.5228 762.195 56.4867 761.756 56.5822C761.318 56.6776 760.917 56.9004 760.605 57.2225C760.292 57.5446 760.082 57.9518 760 58.393C759.918 58.8342 759.967 59.2898 760.143 59.7027C760.319 60.1157 760.613 60.4676 760.987 60.7144C761.362 60.9611 761.802 61.0918 762.25 61.09C762.556 61.096 762.859 61.0389 763.141 60.9223C763.423 60.8058 763.678 60.6323 763.89 60.4127C764.103 60.1931 764.267 59.932 764.374 59.646C764.48 59.3599 764.527 59.0549 764.51 58.75H764.52Z" fill="#B4B7C9"/>
<path d="M768.87 51.1501C768.87 50.7981 768.975 50.4539 769.17 50.1612C769.366 49.8685 769.644 49.6403 769.969 49.5056C770.294 49.3709 770.652 49.3356 770.997 49.4043C771.343 49.473 771.66 49.6425 771.909 49.8915C772.158 50.1404 772.327 50.4576 772.396 50.8028C772.465 51.1481 772.429 51.506 772.295 51.8313C772.16 52.1565 771.932 52.4345 771.639 52.6301C771.346 52.8257 771.002 52.9301 770.65 52.9301C770.18 52.9249 769.73 52.7357 769.397 52.403C769.065 52.0703 768.875 51.6206 768.87 51.1501ZM769.16 53.8001H772.16V63.7001H769.16V53.8001Z" fill="#B4B7C9"/>
<path d="M785 58.7501C785.034 59.4085 784.937 60.0671 784.715 60.6879C784.493 61.3087 784.151 61.8795 783.708 62.3674C783.264 62.8554 782.729 63.2508 782.132 63.531C781.535 63.8112 780.889 63.9706 780.23 64.0001C779.672 64.0373 779.111 63.9478 778.592 63.7383C778.073 63.5287 777.607 63.2046 777.23 62.7901V67.6801H774.23V53.8001H777.23V54.7301C777.608 54.3168 778.073 53.9942 778.593 53.7864C779.112 53.5785 779.672 53.4909 780.23 53.5301C780.886 53.5596 781.53 53.7181 782.125 53.9964C782.72 54.2747 783.254 54.6675 783.697 55.1522C784.14 55.6369 784.483 56.2041 784.706 56.8215C784.93 57.4388 785.03 58.0941 785 58.7501ZM782 58.7501C781.989 58.2856 781.84 57.835 781.573 57.4547C781.306 57.0744 780.933 56.7812 780.5 56.6121C780.068 56.4429 779.595 56.4053 779.141 56.5038C778.687 56.6023 778.272 56.8327 777.948 57.166C777.624 57.4993 777.406 57.9207 777.321 58.3775C777.236 58.8342 777.288 59.3059 777.469 59.7335C777.651 60.161 777.955 60.5254 778.343 60.781C778.731 61.0366 779.186 61.1719 779.65 61.1701C779.969 61.1836 780.286 61.1297 780.582 61.0119C780.878 60.8941 781.146 60.7151 781.368 60.4866C781.59 60.2581 781.761 59.9852 781.87 59.686C781.979 59.3867 782.023 59.0678 782 58.7501Z" fill="#B4B7C9"/>
<path d="M794.13 60.73C794.13 63.01 792.13 63.98 790.01 63.98C789.145 64.0578 788.277 63.8745 787.518 63.4538C786.758 63.0331 786.143 62.3943 785.75 61.62L788.33 60.16C788.432 60.5168 788.654 60.8277 788.958 61.0407C789.262 61.2537 789.63 61.3558 790 61.33C790.71 61.33 791.07 61.11 791.07 60.71C791.07 59.62 786.2 60.2 786.2 56.77C786.2 54.61 788.02 53.53 790.08 53.53C790.863 53.4949 791.641 53.6726 792.331 54.0441C793.021 54.4156 793.598 54.9671 794 55.64L791.42 57C791.306 56.742 791.12 56.5226 790.884 56.3682C790.648 56.2138 790.372 56.1311 790.09 56.13C789.57 56.13 789.26 56.33 789.26 56.68C789.26 57.82 794.13 57.07 794.13 60.73Z" fill="#B4B7C9"/>
<path d="M805 53.8V63.7H802V62.77C801.659 63.1817 801.226 63.5074 800.737 63.7211C800.247 63.9348 799.714 64.0303 799.18 64C797.18 64 795.47 62.57 795.47 59.9V53.8H798.47V59.45C798.446 59.6862 798.474 59.9247 798.552 60.1491C798.63 60.3734 798.755 60.5782 798.919 60.7494C799.084 60.9205 799.284 61.0539 799.505 61.1404C799.726 61.2268 799.963 61.2642 800.2 61.25C801.28 61.25 802.04 60.61 802.04 59.25V53.8H805Z" fill="#B4B7C9"/>
<path d="M822 57.62V63.7H819V57.88C819 56.88 818.53 56.26 817.58 56.26C816.63 56.26 816.03 56.95 816.03 58.12V63.7H813.03V57.88C813.03 56.88 812.56 56.26 811.61 56.26C810.66 56.26 810.06 56.95 810.06 58.12V63.7H807.06V53.8H810.06V54.71C810.371 54.308 810.776 53.9896 811.241 53.7836C811.705 53.5776 812.214 53.4904 812.72 53.53C813.227 53.5035 813.733 53.6095 814.187 53.8374C814.641 54.0653 815.028 54.4074 815.31 54.83C815.64 54.3884 816.076 54.0376 816.578 53.8103C817.079 53.5829 817.631 53.4865 818.18 53.53C820.52 53.53 822 55.15 822 57.62Z" fill="#B4B7C9"/>
<path d="M824.52 53.7401C825.735 53.7401 826.72 52.7551 826.72 51.5401C826.72 50.3251 825.735 49.3401 824.52 49.3401C823.305 49.3401 822.32 50.3251 822.32 51.5401C822.32 52.7551 823.305 53.7401 824.52 53.7401Z" fill="#B4B7C9"/>
<rect x="884.5" y="7.5" width="195" height="99" rx="7.5" fill="white"/>
<rect x="884.5" y="7.5" width="195" height="99" rx="7.5" stroke="#E2E5F1"/>
<path d="M956.87 51.0699H959.87V63.1999H956.87V51.0699ZM961.06 58.6199C961.06 55.6199 962.9 53.8299 965.74 53.8299C968.58 53.8299 970.42 55.6199 970.42 58.6199C970.42 61.6199 968.62 63.4199 965.74 63.4199C962.86 63.4199 961.06 61.6699 961.06 58.6199ZM967.41 58.6199C967.41 56.9699 966.76 55.9999 965.74 55.9999C964.72 55.9999 964.08 56.9999 964.08 58.6199C964.08 60.2399 964.71 61.2199 965.74 61.2199C966.77 61.2199 967.41 60.2999 967.41 58.6299V58.6199ZM971.55 63.7899H974.43C974.567 64.0944 974.799 64.3465 975.091 64.5087C975.383 64.6708 975.719 64.7344 976.05 64.6899C977.19 64.6899 977.79 64.0699 977.79 63.1699V61.4899H977.73C977.491 62.0048 977.103 62.4362 976.617 62.7286C976.13 63.0209 975.567 63.1607 975 63.1299C972.81 63.1299 971.36 61.4599 971.36 58.5899C971.36 55.7199 972.74 53.9099 975.04 53.9099C975.625 53.887 976.202 54.0433 976.696 54.3578C977.189 54.6724 977.574 55.1302 977.8 55.6699V53.9999H980.8V63.0999C980.8 65.2899 978.87 66.6499 976.02 66.6499C973.37 66.6499 971.72 65.4599 971.55 63.7999V63.7899ZM977.8 58.6099C977.8 57.1499 977.13 56.2299 976.07 56.2299C975.01 56.2299 974.36 57.1399 974.36 58.6099C974.36 60.0799 975 60.9099 976.07 60.9099C977.14 60.9099 977.8 60.0999 977.8 58.6199V58.6099ZM981.93 58.6099C981.93 55.6099 983.77 53.8199 986.61 53.8199C989.45 53.8199 991.3 55.6099 991.3 58.6099C991.3 61.6099 989.5 63.4099 986.61 63.4099C983.72 63.4099 981.93 61.6699 981.93 58.6199V58.6099ZM988.28 58.6099C988.28 56.9599 987.63 55.9899 986.61 55.9899C985.59 55.9899 985 56.9999 985 58.6299C985 60.2599 985.63 61.2299 986.65 61.2299C987.67 61.2299 988.28 60.2999 988.28 58.6299V58.6099ZM992.44 51.8199C992.432 51.517 992.515 51.2186 992.676 50.9625C992.838 50.7064 993.073 50.5042 993.35 50.3814C993.627 50.2587 993.934 50.2209 994.232 50.273C994.531 50.325 994.807 50.4646 995.026 50.6738C995.246 50.8831 995.398 51.1527 995.463 51.4485C995.529 51.7443 995.505 52.0529 995.395 52.3353C995.285 52.6176 995.094 52.861 994.846 53.0345C994.597 53.208 994.303 53.3039 994 53.3099C993.799 53.3237 993.598 53.2958 993.408 53.228C993.219 53.1602 993.045 53.054 992.899 52.9159C992.752 52.7779 992.636 52.611 992.557 52.4258C992.478 52.2407 992.438 52.0412 992.44 51.8399V51.8199ZM992.44 54.0199H995.44V63.1999H992.44V54.0199ZM1006.33 58.6099C1006.33 61.6099 1005 63.3199 1002.72 63.3199C1002.14 63.3574 1001.55 63.2145 1001.05 62.9105C1000.55 62.6064 1000.16 62.1559 999.92 61.6199H999.86V66.1399H996.86V53.9999H999.86V55.6399H999.92C1000.15 55.095 1000.53 54.6328 1001.03 54.3161C1001.53 53.9994 1002.11 53.8436 1002.7 53.8699C1005 53.9099 1006.37 55.6299 1006.37 58.6299L1006.33 58.6099ZM1003.33 58.6099C1003.33 57.1499 1002.66 56.2199 1001.61 56.2199C1000.56 56.2199 999.89 57.1599 999.88 58.6099C999.87 60.0599 1000.56 60.9899 1001.61 60.9899C1002.66 60.9899 1003.33 60.0799 1003.33 58.6299V58.6099ZM1011.48 53.8099C1013.97 53.8099 1015.48 54.9899 1015.55 56.8799H1012.82C1012.82 56.2299 1012.28 55.8199 1011.45 55.8199C1010.62 55.8199 1010.25 56.1399 1010.25 56.6099C1010.25 57.0799 1010.58 57.2299 1011.25 57.3699L1013.17 57.7599C1015 58.1499 1015.78 58.8899 1015.78 60.2799C1015.78 62.1799 1014.05 63.3999 1011.5 63.3999C1008.95 63.3999 1007.28 62.1799 1007.15 60.3099H1010.04C1010.13 60.9899 1010.67 61.3899 1011.55 61.3899C1012.43 61.3899 1012.83 61.0999 1012.83 60.6199C1012.83 60.1399 1012.55 60.0399 1011.83 59.8899L1010.1 59.5199C1008.31 59.1499 1007.37 58.1999 1007.37 56.7999C1007.39 54.9999 1009 53.8299 1011.48 53.8299V53.8099ZM1025.79 63.1799H1022.9V61.4699H1022.84C1022.68 62.044 1022.33 62.5465 1021.85 62.894C1021.36 63.2414 1020.78 63.4129 1020.18 63.3799C1019.72 63.4058 1019.27 63.3336 1018.84 63.1681C1018.42 63.0026 1018.03 62.7478 1017.71 62.4207C1017.4 62.0937 1017.15 61.702 1017 61.2723C1016.84 60.8426 1016.78 60.3848 1016.82 59.9299V53.9999H1019.82V59.2399C1019.82 60.3299 1020.38 60.9099 1021.31 60.9099C1021.53 60.9103 1021.74 60.8642 1021.94 60.7745C1022.14 60.6848 1022.32 60.5536 1022.46 60.3898C1022.61 60.2259 1022.71 60.0332 1022.78 59.8246C1022.84 59.6159 1022.86 59.3961 1022.83 59.1799V53.9999H1025.83L1025.79 63.1799ZM1027.24 53.9999H1030.14V55.7699H1030.2C1030.36 55.2034 1030.7 54.7056 1031.17 54.3546C1031.65 54.0036 1032.22 53.819 1032.81 53.8299C1033.41 53.782 1034 53.9611 1034.48 54.3317C1034.95 54.7023 1035.26 55.2371 1035.36 55.8299H1035.42C1035.6 55.2308 1035.98 54.7092 1036.49 54.3471C1037 53.985 1037.62 53.803 1038.24 53.8299C1038.65 53.8162 1039.05 53.8885 1039.43 54.0421C1039.81 54.1956 1040.15 54.4271 1040.44 54.7213C1040.72 55.0156 1040.94 55.3661 1041.08 55.75C1041.21 56.1339 1041.27 56.5428 1041.24 56.9499V63.1999H1038.24V57.7499C1038.24 56.7499 1037.79 56.2899 1036.95 56.2899C1036.76 56.2883 1036.58 56.3269 1036.41 56.4031C1036.24 56.4793 1036.08 56.5913 1035.96 56.7316C1035.83 56.8719 1035.74 57.0371 1035.69 57.2162C1035.63 57.3954 1035.62 57.5842 1035.64 57.7699V63.1999H1032.79V57.7099C1032.79 56.7899 1032.34 56.2899 1031.52 56.2899C1031.33 56.29 1031.14 56.3302 1030.97 56.4079C1030.8 56.4857 1030.64 56.5992 1030.52 56.7409C1030.39 56.8826 1030.3 57.0494 1030.24 57.2303C1030.19 57.4111 1030.17 57.6018 1030.19 57.7899V63.1999H1027.19L1027.24 53.9999Z" fill="#B4B7C9"/>
<path d="M948.48 51.6199C947.971 50.4563 947.297 49.3718 946.48 48.3999C945.271 46.9202 943.763 45.7133 942.054 44.8585C940.346 44.0037 938.475 43.5205 936.567 43.4406C934.658 43.3606 932.754 43.6859 930.98 44.3949C929.206 45.1039 927.602 46.1805 926.274 47.554C924.946 48.9275 923.924 50.5666 923.275 52.3636C922.626 54.1605 922.365 56.0745 922.509 57.9795C922.653 59.8846 923.199 61.7375 924.111 63.4163C925.023 65.0952 926.28 66.5619 927.8 67.7199C928.775 68.4778 929.852 69.0939 931 69.5499C932.609 70.2093 934.331 70.5489 936.07 70.5499C939.659 70.542 943.099 69.1112 945.635 66.5712C948.171 64.0312 949.597 60.5893 949.6 56.9999C949.602 55.1484 949.221 53.3165 948.48 51.6199ZM936.06 46.1899C937.621 46.1897 939.164 46.531 940.58 47.1899C940.234 47.3391 939.871 47.4432 939.5 47.4999C938.276 47.677 937.143 48.245 936.269 49.1191C935.395 49.9932 934.827 51.1265 934.65 52.3499C934.572 53.036 934.26 53.6743 933.766 54.1571C933.272 54.6399 932.627 54.9375 931.94 54.9999C930.716 55.177 929.583 55.745 928.709 56.6191C927.835 57.4932 927.267 58.6265 927.09 59.8499C927.03 60.5023 926.751 61.1154 926.3 61.5899C925.52 59.9432 925.17 58.126 925.282 56.3076C925.394 54.4892 925.964 52.7286 926.939 51.1896C927.914 49.6507 929.262 48.3834 930.859 47.5057C932.455 46.6281 934.248 46.1685 936.07 46.1699L936.06 46.1899ZM927.79 63.9999C927.91 63.8899 928.03 63.7899 928.15 63.6699C929.039 62.8074 929.61 61.6688 929.77 60.4399C929.834 59.7491 930.143 59.1039 930.64 58.6199C931.118 58.1221 931.762 57.8162 932.45 57.7599C933.673 57.5828 934.806 57.0148 935.68 56.1407C936.555 55.2666 937.123 54.1333 937.3 52.9099C937.343 52.1874 937.653 51.5067 938.17 50.9999C938.66 50.5117 939.31 50.217 940 50.1699C941.124 50.0153 942.172 49.5156 943 48.7399C943.942 49.522 944.741 50.4628 945.36 51.5199C945.322 51.5712 945.278 51.6182 945.23 51.6599C944.752 52.1621 944.109 52.4747 943.42 52.5399C942.195 52.7139 941.06 53.2809 940.185 54.1555C939.311 55.0302 938.744 56.1652 938.57 57.3899C938.499 58.0783 938.193 58.7212 937.703 59.2096C937.212 59.6981 936.568 60.002 935.88 60.0699C934.653 60.2456 933.515 60.8125 932.636 61.6862C931.757 62.56 931.183 63.694 931 64.9199C930.946 65.4086 930.778 65.8779 930.51 66.2899C929.484 65.6807 928.565 64.9071 927.79 63.9999ZM936.06 67.8599C935.045 67.861 934.035 67.7196 933.06 67.4399C933.393 66.8179 933.61 66.14 933.7 65.4399C933.77 64.753 934.075 64.1113 934.563 63.6231C935.051 63.1349 935.693 62.83 936.38 62.7599C937.605 62.5848 938.74 62.0177 939.617 61.1434C940.493 60.2692 941.062 59.1347 941.24 57.9099C941.31 57.223 941.615 56.5813 942.103 56.0931C942.591 55.6049 943.233 55.3 943.92 55.2299C944.842 55.11 945.72 54.7667 946.48 54.2299C946.901 55.8278 946.951 57.501 946.626 59.1212C946.3 60.7414 945.608 62.2656 944.602 63.5767C943.596 64.8877 942.303 65.951 940.822 66.6848C939.341 67.4186 937.712 67.8035 936.06 67.8099V67.8599Z" fill="#B4B7C9"/>
<g filter="url(#filter1_dd_4632_11188)">
<rect x="1104" y="7" width="196" height="100" rx="8" fill="white"/>
<rect x="1104.5" y="7.5" width="195" height="99" rx="7.5" stroke="#E2E5F1"/>
<path d="M1166.52 52.25C1166.88 52.25 1167 52.38 1167 52.73V60.65H1171.07C1171.42 60.65 1171.55 60.78 1171.55 61.13V61.83C1171.55 62.18 1171.42 62.31 1171.07 62.31H1165.71C1165.36 62.31 1165.22 62.18 1165.22 61.83V52.73C1165.22 52.38 1165.36 52.25 1165.71 52.25H1166.52Z" fill="#B4B7C9"/>
<path d="M1175.1 55.74C1175.1 53.43 1176.56 52.04 1179.1 52.04C1181.64 52.04 1183.1 53.43 1183.1 55.74V58.82C1183.1 61.13 1181.63 62.52 1179.1 62.52C1176.57 62.52 1175.1 61.13 1175.1 58.82V55.74ZM1181.42 55.74C1181.42 54.44 1180.61 53.74 1179.15 53.74C1177.69 53.74 1176.89 54.45 1176.89 55.74V58.84C1176.89 60.15 1177.69 60.84 1179.15 60.84C1180.61 60.84 1181.42 60.12 1181.42 58.84V55.74Z" fill="#B4B7C9"/>
<path d="M1195.01 56.8C1195.4 56.8 1195.49 56.93 1195.49 57.28V59.18C1195.5 59.6275 1195.41 60.0718 1195.23 60.4801C1195.04 60.8885 1194.77 61.2506 1194.43 61.54C1193.58 62.2155 1192.51 62.5506 1191.43 62.48C1188.84 62.48 1187.43 61.09 1187.43 58.78V55.68C1187.43 53.4 1188.89 52 1191.43 52C1193.43 52 1194.73 52.79 1195.28 54.37C1195.31 54.4294 1195.33 54.4951 1195.33 54.5619C1195.33 54.6288 1195.31 54.695 1195.28 54.7551C1195.26 54.8153 1195.21 54.8679 1195.16 54.9087C1195.11 54.9494 1195.05 54.9773 1194.98 54.99L1194.2 55.26C1193.86 55.38 1193.72 55.31 1193.6 54.96C1193.43 54.5329 1193.13 54.1731 1192.74 53.9377C1192.34 53.7023 1191.88 53.6045 1191.43 53.66C1189.96 53.66 1189.16 54.37 1189.16 55.66V58.84C1189.16 60.15 1189.97 60.84 1191.43 60.84C1192.89 60.84 1193.79 60.17 1193.79 59.19V58.45H1191.62C1191.26 58.45 1191.13 58.31 1191.13 57.96V57.28C1191.13 56.93 1191.26 56.8 1191.62 56.8H1195.01Z" fill="#B4B7C9"/>
<path d="M1199.62 55.74C1199.62 53.43 1201.08 52.04 1203.62 52.04C1206.16 52.04 1207.62 53.43 1207.62 55.74V58.82C1207.62 61.13 1206.15 62.52 1203.62 62.52C1201.09 62.52 1199.62 61.13 1199.62 58.82V55.74ZM1205.93 55.74C1205.93 54.44 1205.12 53.74 1203.67 53.74C1202.22 53.74 1201.4 54.45 1201.4 55.74V58.84C1201.4 60.15 1202.21 60.84 1203.67 60.84C1205.13 60.84 1205.93 60.12 1205.93 58.84V55.74Z" fill="#B4B7C9"/>
<path d="M1212.33 52.54C1212.33 52.32 1212.4 52.25 1212.62 52.25H1213.08C1213.3 52.25 1213.35 52.32 1213.35 52.54V62.02C1213.35 62.24 1213.35 62.31 1213.08 62.31H1212.62C1212.4 62.31 1212.33 62.24 1212.33 62.02V52.54Z" fill="#B4B7C9"/>
<path d="M1222.46 52.25C1223.29 52.25 1224.09 52.5808 1224.68 53.1697C1225.27 53.7585 1225.6 54.5572 1225.6 55.39C1225.6 56.2228 1225.27 57.0215 1224.68 57.6103C1224.09 58.1992 1223.29 58.53 1222.46 58.53H1219.46V62.02C1219.46 62.24 1219.41 62.31 1219.2 62.31H1218.73C1218.52 62.31 1218.44 62.24 1218.44 62.02V52.54C1218.44 52.32 1218.52 52.25 1218.73 52.25H1222.46ZM1222.37 57.54C1222.66 57.54 1222.94 57.4836 1223.2 57.3741C1223.47 57.2645 1223.71 57.1039 1223.91 56.9015C1224.11 56.6991 1224.27 56.4587 1224.38 56.1943C1224.49 55.9298 1224.55 55.6463 1224.55 55.36C1224.55 55.0737 1224.49 54.7902 1224.38 54.5257C1224.27 54.2613 1224.11 54.0209 1223.91 53.8185C1223.71 53.6161 1223.47 53.4555 1223.2 53.3459C1222.94 53.2364 1222.66 53.18 1222.37 53.18H1219.37V57.54H1222.37Z" fill="#B4B7C9"/>
<path d="M1233.41 52.0501C1234.18 51.9649 1234.96 52.131 1235.63 52.5237C1236.3 52.9165 1236.83 53.5149 1237.13 54.2301C1237.21 54.3901 1237.13 54.5201 1236.97 54.6001L1236.53 54.8001C1236.35 54.8701 1236.28 54.8601 1236.17 54.6701C1235.94 54.1393 1235.55 53.6943 1235.06 53.3995C1234.56 53.1047 1233.98 52.9753 1233.41 53.0301C1231.72 53.0301 1230.8 53.7001 1230.8 54.9001C1230.79 55.2668 1230.91 55.6248 1231.15 55.9078C1231.38 56.1908 1231.71 56.3799 1232.07 56.4401C1232.61 56.6155 1233.17 56.723 1233.73 56.7601C1234.41 56.7965 1235.09 56.9347 1235.73 57.1701C1236.22 57.326 1236.65 57.6466 1236.93 58.0782C1237.22 58.5098 1237.34 59.026 1237.29 59.5401C1237.29 61.4101 1235.93 62.5401 1233.43 62.5401C1232.61 62.6339 1231.78 62.4439 1231.09 62.0017C1230.39 61.5596 1229.86 60.8919 1229.6 60.1101C1229.58 60.0745 1229.57 60.0354 1229.57 59.9956C1229.57 59.9558 1229.58 59.9164 1229.6 59.8801C1229.61 59.8438 1229.64 59.8115 1229.67 59.7856C1229.7 59.7596 1229.73 59.7407 1229.77 59.7301L1230.21 59.5701C1230.24 59.5559 1230.28 59.5491 1230.32 59.5501C1230.36 59.5511 1230.39 59.5599 1230.43 59.5759C1230.46 59.5919 1230.49 59.6147 1230.52 59.643C1230.54 59.6713 1230.56 59.7043 1230.57 59.7401C1230.79 60.305 1231.19 60.784 1231.71 61.1077C1232.22 61.4313 1232.82 61.5828 1233.43 61.5401C1235.32 61.5401 1236.25 60.8801 1236.25 59.5401C1236.27 59.1879 1236.16 58.8408 1235.95 58.5606C1235.73 58.2805 1235.42 58.0854 1235.08 58.0101C1234.56 57.8558 1234.03 57.7618 1233.49 57.7301L1232.41 57.5901C1232.07 57.5184 1231.74 57.4282 1231.41 57.3201C1231.09 57.2222 1230.78 57.0626 1230.52 56.8501C1230.26 56.6099 1230.05 56.3143 1229.91 55.9842C1229.77 55.6541 1229.71 55.2977 1229.72 54.9401C1229.79 53.1901 1231.1 52.0501 1233.41 52.0501Z" fill="#B4B7C9"/>
<path d="M1242.68 58.89C1242.72 59.5972 1243.03 60.2615 1243.55 60.7472C1244.07 61.2329 1244.75 61.5033 1245.46 61.5033C1246.16 61.5033 1246.85 61.2329 1247.36 60.7472C1247.88 60.2615 1248.19 59.5972 1248.23 58.89V52.54C1248.23 52.32 1248.3 52.25 1248.52 52.25H1248.98C1249.2 52.25 1249.27 52.32 1249.27 52.54V58.88C1249.27 61.15 1247.93 62.52 1245.46 62.52C1242.99 62.52 1241.65 61.15 1241.65 58.88V52.54C1241.65 52.32 1241.72 52.25 1241.93 52.25H1242.4C1242.61 52.25 1242.68 52.32 1242.68 52.54V58.89Z" fill="#B4B7C9"/>
<path d="M1263.07 52.25C1263.29 52.25 1263.36 52.32 1263.36 52.54V62.02C1263.36 62.24 1263.29 62.31 1263.07 62.31H1262.65C1262.44 62.31 1262.37 62.24 1262.37 62.02V56.25C1262.37 55.4105 1262.43 54.5719 1262.54 53.74H1262.48C1262.17 54.5007 1261.8 55.2391 1261.39 55.95L1259.24 59.74C1259.21 59.8058 1259.17 59.862 1259.11 59.9013C1259.05 59.9405 1258.98 59.961 1258.91 59.96H1258.63C1258.56 59.9604 1258.49 59.9397 1258.43 59.9007C1258.37 59.8616 1258.32 59.8058 1258.29 59.74L1256.11 55.91C1255.72 55.2093 1255.39 54.4806 1255.11 53.73H1255.05C1255.15 54.5695 1255.21 55.4143 1255.21 56.26V62.02C1255.21 62.24 1255.14 62.31 1254.92 62.31H1254.53C1254.31 62.31 1254.24 62.24 1254.24 62.02V52.54C1254.24 52.32 1254.31 52.25 1254.53 52.25H1254.89C1254.97 52.2424 1255.06 52.2603 1255.13 52.3015C1255.2 52.3427 1255.26 52.4051 1255.29 52.48L1258.79 58.7L1262.27 52.54C1262.38 52.33 1262.44 52.3 1262.66 52.3L1263.07 52.25Z" fill="#B4B7C9"/>
<path d="M1148.73 60.79V68.02C1148.73 68.2972 1148.62 68.563 1148.42 68.7589C1148.23 68.9549 1147.96 69.065 1147.69 69.065C1147.41 69.065 1147.14 68.9549 1146.95 68.7589C1146.75 68.563 1146.64 68.2972 1146.64 68.02V60.8C1146.93 61.0125 1147.28 61.1311 1147.64 61.14C1148.03 61.1512 1148.42 61.0277 1148.73 60.79ZM1157.63 58.7C1157.36 58.7 1157.11 58.8054 1156.92 58.9929C1156.74 59.1804 1156.63 59.4348 1156.63 59.7V60.96C1156.63 61.2372 1156.74 61.503 1156.94 61.6989C1157.13 61.8949 1157.4 62.005 1157.67 62.005C1157.95 62.005 1158.22 61.8949 1158.41 61.6989C1158.61 61.503 1158.72 61.2372 1158.72 60.96V59.75C1158.73 59.6066 1158.7 59.4632 1158.65 59.3296C1158.6 59.196 1158.52 59.0752 1158.42 58.9756C1158.31 58.876 1158.19 58.7998 1158.05 58.7522C1157.92 58.7047 1157.77 58.6869 1157.63 58.7ZM1144.37 63.53C1144.01 63.5192 1143.66 63.4008 1143.37 63.19V70.44C1143.37 70.7185 1143.48 70.9856 1143.68 71.1825C1143.87 71.3794 1144.14 71.49 1144.42 71.49C1144.7 71.49 1144.97 71.3794 1145.16 71.1825C1145.36 70.9856 1145.47 70.7185 1145.47 70.44V63.24C1145.14 63.4511 1144.76 63.5527 1144.37 63.53ZM1154.37 56.53C1154.23 56.5232 1154.1 56.5441 1153.97 56.5913C1153.84 56.6385 1153.73 56.7111 1153.63 56.8046C1153.53 56.8982 1153.45 57.0107 1153.4 57.1354C1153.35 57.2601 1153.32 57.3944 1153.32 57.53V63.1C1153.32 63.3785 1153.43 63.6456 1153.63 63.8425C1153.82 64.0394 1154.09 64.15 1154.37 64.15C1154.65 64.15 1154.92 64.0394 1155.11 63.8425C1155.31 63.6456 1155.42 63.3785 1155.42 63.1V57.6C1155.43 57.4557 1155.4 57.3114 1155.35 57.177C1155.3 57.0426 1155.22 56.9213 1155.11 56.8215C1155.01 56.7217 1154.88 56.6457 1154.75 56.5989C1154.61 56.552 1154.46 56.5353 1154.32 56.55L1154.37 56.53ZM1151.05 58.67C1150.67 58.6674 1150.31 58.5487 1150 58.33V65.6C1150 65.8785 1150.11 66.1456 1150.31 66.3425C1150.5 66.5394 1150.77 66.65 1151.05 66.65C1151.33 66.65 1151.6 66.5394 1151.79 66.3425C1151.99 66.1456 1152.1 65.8785 1152.1 65.6V58.34C1151.78 58.5763 1151.4 58.6995 1151 58.69L1151.05 58.67ZM1142.1 64.24V43.93C1142.1 43.6824 1142 43.4459 1141.82 43.2718C1141.65 43.0977 1141.41 43 1141.16 43H1140.94C1140.69 43 1140.45 43.0977 1140.28 43.2718C1140.1 43.4459 1140 43.6824 1140 43.93V64.24C1140 64.4893 1140.1 64.7284 1140.28 64.9047C1140.45 65.081 1140.69 65.18 1140.94 65.18H1141.16C1141.41 65.18 1141.65 65.081 1141.82 64.9047C1142 64.7284 1142.1 64.4893 1142.1 64.24ZM1144.48 62.76H1144.26C1144.01 62.76 1143.77 62.661 1143.6 62.4847C1143.42 62.3084 1143.32 62.0693 1143.32 61.82V46.35C1143.32 46.1024 1143.42 45.8659 1143.6 45.6918C1143.77 45.5177 1144.01 45.42 1144.26 45.42H1144.48C1144.73 45.42 1144.97 45.5177 1145.14 45.6918C1145.32 45.8659 1145.42 46.1024 1145.42 46.35V61.84C1145.42 62.0893 1145.32 62.3284 1145.14 62.5047C1144.97 62.681 1144.73 62.78 1144.48 62.78V62.76ZM1147.79 60.38H1147.56C1147.31 60.38 1147.08 60.282 1146.9 60.1076C1146.73 59.9332 1146.63 59.6967 1146.63 59.45V48.75C1146.63 48.627 1146.65 48.505 1146.7 48.391C1146.74 48.277 1146.81 48.1733 1146.9 48.0859C1146.99 47.9985 1147.09 47.9291 1147.2 47.8817C1147.32 47.8344 1147.44 47.81 1147.56 47.81H1147.79C1148.04 47.8126 1148.27 47.9128 1148.45 48.0888C1148.62 48.2648 1148.72 48.5024 1148.72 48.75V59.45C1148.72 59.6967 1148.62 59.9332 1148.45 60.1076C1148.27 60.282 1148.04 60.38 1147.79 60.38ZM1151.1 57.93H1150.89C1150.64 57.93 1150.4 57.8324 1150.23 57.6582C1150.05 57.4841 1149.95 57.2476 1149.95 57V51.24C1149.94 51.1116 1149.96 50.9829 1150 50.8618C1150.05 50.7408 1150.12 50.6299 1150.2 50.5362C1150.29 50.4424 1150.4 50.3678 1150.52 50.3168C1150.63 50.2659 1150.76 50.2397 1150.89 50.24H1151.11C1151.36 50.24 1151.6 50.339 1151.77 50.5153C1151.95 50.6916 1152.05 50.9307 1152.05 51.18V56.98C1152.05 57.1043 1152.03 57.2276 1151.98 57.3428C1151.93 57.458 1151.87 57.5628 1151.78 57.6512C1151.69 57.7395 1151.59 57.8096 1151.47 57.8575C1151.36 57.9054 1151.23 57.93 1151.11 57.93H1151.1ZM1154.42 55.78H1154.2C1153.95 55.78 1153.71 55.681 1153.54 55.5047C1153.36 55.3284 1153.26 55.0893 1153.26 54.84V53.35C1153.26 53.1024 1153.36 52.8659 1153.54 52.6918C1153.71 52.5176 1153.95 52.42 1154.2 52.42H1154.42C1154.67 52.42 1154.91 52.5176 1155.08 52.6918C1155.26 52.8659 1155.36 53.1024 1155.36 53.35V54.84C1155.36 55.0876 1155.26 55.3252 1155.09 55.5012C1154.91 55.6772 1154.68 55.7774 1154.43 55.78H1154.42Z" fill="#B4B7C9"/>
</g>
<defs>
<filter id="filter0_d_4632_11188" x="0" y="7" width="204" height="108" filterUnits="userSpaceOnUse" color-interpolation-filters="sRGB">
<feFlood flood-opacity="0" result="BackgroundImageFix"/>
<feColorMatrix in="SourceAlpha" type="matrix" values="0 0 0 0 0 0 0 0 0 0 0 0 0 0 0 0 0 0 127 0" result="hardAlpha"/>
<feOffset dy="4"/>
<feGaussianBlur stdDeviation="2"/>
<feComposite in2="hardAlpha" operator="out"/>
<feColorMatrix type="matrix" values="0 0 0 0 0 0 0 0 0 0 0 0 0 0 0 0 0 0 0.25 0"/>
<feBlend mode="normal" in2="BackgroundImageFix" result="effect1_dropShadow_4632_11188"/>
<feBlend mode="normal" in="SourceGraphic" in2="effect1_dropShadow_4632_11188" result="shape"/>
</filter>
<filter id="filter1_dd_4632_11188" x="1093" y="0.4" width="218" height="122" filterUnits="userSpaceOnUse" color-interpolation-filters="sRGB">
<feFlood flood-opacity="0" result="BackgroundImageFix"/>
<feColorMatrix in="SourceAlpha" type="matrix" values="0 0 0 0 0 0 0 0 0 0 0 0 0 0 0 0 0 0 127 0" result="hardAlpha"/>
<feMorphology radius="1" operator="erode" in="SourceAlpha" result="effect1_dropShadow_4632_11188"/>
<feOffset dy="2"/>
<feGaussianBlur stdDeviation="3.2"/>
<feColorMatrix type="matrix" values="0 0 0 0 0.0745098 0 0 0 0 0.0627451 0 0 0 0 0.133333 0 0 0 0.03 0"/>
<feBlend mode="normal" in2="BackgroundImageFix" result="effect1_dropShadow_4632_11188"/>
<feColorMatrix in="SourceAlpha" type="matrix" values="0 0 0 0 0 0 0 0 0 0 0 0 0 0 0 0 0 0 127 0" result="hardAlpha"/>
<feMorphology radius="1" operator="erode" in="SourceAlpha" result="effect2_dropShadow_4632_11188"/>
<feOffset dy="4.4"/>
<feGaussianBlur stdDeviation="6"/>
<feColorMatrix type="matrix" values="0 0 0 0 0.0745098 0 0 0 0 0.0627451 0 0 0 0 0.133333 0 0 0 0.06 0"/>
<feBlend mode="normal" in2="effect1_dropShadow_4632_11188" result="effect2_dropShadow_4632_11188"/>
<feBlend mode="normal" in="SourceGraphic" in2="effect2_dropShadow_4632_11188" result="shape"/>
</filter>
</defs>
</svg>
