<svg width="14" height="14" viewBox="0 0 14 14" fill="none" xmlns="http://www.w3.org/2000/svg">
<path d="M13.6316 5.11933C13.5456 4.86733 13.3183 4.68933 13.053 4.66866L9.25231 4.36666L7.60765 0.725995C7.50031 0.486662 7.26231 0.333328 7.00031 0.333328C6.73831 0.333328 6.50031 0.486662 6.39298 0.725328L4.74831 4.36666L0.947645 4.66866C0.686978 4.68933 0.462311 4.86066 0.373645 5.10666C0.284978 5.35266 0.347645 5.62799 0.534978 5.81066L3.34364 8.54866L2.35031 12.85C2.28898 13.116 2.39631 13.3927 2.62098 13.548C2.73564 13.6267 2.86764 13.6667 3.00031 13.6667C3.12898 13.6667 3.25831 13.6293 3.37031 13.5547L7.00031 11.1347L10.6303 13.5547C10.8623 13.7093 11.167 13.7033 11.3936 13.5387C11.619 13.374 11.7183 13.0853 11.6416 12.8173L10.4223 8.55066L13.4463 5.82933C13.6443 5.65066 13.717 5.372 13.6316 5.11933Z" fill="#FFBA08"/>
</svg>
