<svg width="68" height="68" viewBox="0 0 68 68" fill="none" xmlns="http://www.w3.org/2000/svg">
<g filter="url(#filter0_d_4632_11147)">
<rect x="4" width="60" height="60" rx="8" fill="#6366F1" fill-opacity="0.08" shape-rendering="crispEdges"/>
<g clip-path="url(#clip0_4632_11147)">
<path d="M46.3217 38.5444C47.4213 37.0473 47.999 35.3076 47.999 33.474C47.999 30.5388 46.4768 27.8137 43.9088 26.1132C43.672 23.4981 42.4509 21.0729 40.4093 19.2042C38.1518 17.138 35.1566 16 31.9756 16C28.7946 16 25.7995 17.138 23.5419 19.2043C21.2573 21.2953 19.9991 24.0831 19.9991 27.0543C19.9991 29.3396 20.7358 31.5062 22.1362 33.36L20.0788 38.4494C19.9119 38.8621 20.0119 39.3348 20.3315 39.6446C20.5399 39.8465 20.8143 39.9531 21.0931 39.9531C21.242 39.9531 21.3922 39.9227 21.534 39.8602L27.402 37.2734C28.1387 37.555 28.8977 37.7657 29.6741 37.9051C30.4695 39.2132 31.6039 40.3208 32.983 41.1272C34.5227 42.0273 36.3004 42.5082 38.129 42.5221C38.1558 42.524 38.1826 42.5262 38.21 42.5262C39.4742 42.5262 40.6991 42.3078 41.8578 41.8765L46.4641 43.907C46.6059 43.9696 46.7561 44 46.905 44C47.1838 44 47.4583 43.8935 47.6666 43.6915C47.9863 43.3816 48.0862 42.9089 47.9193 42.4963L46.3217 38.5444ZM44.0554 38.7749L44.8817 40.8189L42.3203 39.6898C42.0434 39.5677 41.7283 39.5658 41.4499 39.6846C40.446 40.1129 39.371 40.3324 38.2543 40.3381C38.2395 40.3375 38.2249 40.3359 38.21 40.3359C36.0545 40.3359 34.0182 39.4936 32.5955 38.0924C34.3993 38.006 36.1673 37.5454 37.7436 36.7449C38.2823 36.4713 38.4971 35.813 38.2235 35.2744C37.95 34.7358 37.2916 34.5211 36.753 34.7945C35.302 35.5315 33.6499 35.9211 31.9756 35.9211C30.5207 35.9211 29.12 35.6382 27.8126 35.0804C27.5343 34.9616 27.2191 34.9634 26.9422 35.0856L23.1164 36.7721L24.4045 33.5857C24.5572 33.2078 24.4873 32.7763 24.2228 32.4662C22.8907 30.9034 22.1866 29.0319 22.1866 27.0543C22.1866 22.1651 26.5779 18.1875 31.9756 18.1875C37.3733 18.1875 41.7646 22.1651 41.7646 27.0543C41.7646 28.6334 41.3004 30.1837 40.422 31.5375C40.0932 32.0442 40.2374 32.7215 40.7442 33.0503C41.2509 33.3792 41.9282 33.2348 42.2571 32.7281C43.0366 31.5267 43.5574 30.2002 43.7982 28.8225C45.0795 30.0772 45.8115 31.73 45.8115 33.474C45.8115 35.0012 45.2671 36.4471 44.2371 37.6554C43.9726 37.9656 43.9027 38.3971 44.0554 38.7749ZM33.0147 32.6797C33.0147 33.2837 32.525 33.7734 31.9209 33.7734C31.3168 33.7734 30.8272 33.2837 30.8272 32.6797C30.8272 32.0756 31.3168 31.5859 31.9209 31.5859C32.525 31.5859 33.0147 32.0756 33.0147 32.6797ZM36.0762 24.4849C36.0769 24.5001 36.0772 24.5153 36.0772 24.5306C36.0776 26.1771 35.0993 27.6588 33.5849 28.3053C33.2716 28.4391 33.069 28.7547 33.069 29.1092V29.1797C33.069 29.7837 32.5793 30.2734 31.9753 30.2734C31.3712 30.2734 30.8815 29.7837 30.8815 29.1797V29.1093C30.8815 27.8771 31.6055 26.7719 32.7261 26.2935C33.4235 25.9958 33.8774 25.3187 33.8894 24.5625C33.8892 24.552 33.889 24.5415 33.889 24.5309C33.889 23.4757 33.0305 22.6172 31.9753 22.6172C30.9201 22.6172 30.0615 23.4757 30.0615 24.5308C30.0615 25.1349 29.5719 25.6246 28.9678 25.6246C28.3637 25.6246 27.874 25.1349 27.874 24.5308C27.874 22.2695 29.7138 20.4297 31.9753 20.4297C34.2213 20.4297 36.0516 22.2446 36.0762 24.4849Z" fill="url(#paint0_linear_4632_11147)"/>
</g>
</g>
<defs>
<filter id="filter0_d_4632_11147" x="0" y="0" width="68" height="68" filterUnits="userSpaceOnUse" color-interpolation-filters="sRGB">
<feFlood flood-opacity="0" result="BackgroundImageFix"/>
<feColorMatrix in="SourceAlpha" type="matrix" values="0 0 0 0 0 0 0 0 0 0 0 0 0 0 0 0 0 0 127 0" result="hardAlpha"/>
<feOffset dy="4"/>
<feGaussianBlur stdDeviation="2"/>
<feComposite in2="hardAlpha" operator="out"/>
<feColorMatrix type="matrix" values="0 0 0 0 0 0 0 0 0 0 0 0 0 0 0 0 0 0 0.25 0"/>
<feBlend mode="normal" in2="BackgroundImageFix" result="effect1_dropShadow_4632_11147"/>
<feBlend mode="normal" in="SourceGraphic" in2="effect1_dropShadow_4632_11147" result="shape"/>
</filter>
<linearGradient id="paint0_linear_4632_11147" x1="19.999" y1="30.067" x2="47.9991" y2="30.067" gradientUnits="userSpaceOnUse">
<stop stop-color="#6366F1"/>
<stop offset="0.5" stop-color="#8B5CF6"/>
<stop offset="1" stop-color="#D946EF"/>
</linearGradient>
<clipPath id="clip0_4632_11147">
<rect width="28" height="28" fill="white" transform="translate(20 16)"/>
</clipPath>
</defs>
</svg>
