<svg width="79" height="13" viewBox="0 0 79 13" fill="none" xmlns="http://www.w3.org/2000/svg">
<path d="M0.12 12V0.48H3.728C3.83467 0.48 4.032 0.482666 4.32 0.488C4.61333 0.493333 4.89333 0.514666 5.16 0.551999C6.06133 0.663999 6.81867 0.986666 7.432 1.52C8.05067 2.05333 8.51733 2.73067 8.832 3.552C9.14667 4.368 9.304 5.264 9.304 6.24C9.304 7.22133 9.14667 8.12267 8.832 8.944C8.51733 9.76 8.05067 10.4347 7.432 10.968C6.81867 11.496 6.06133 11.816 5.16 11.928C4.89333 11.9653 4.61333 11.9867 4.32 11.992C4.032 11.9973 3.83467 12 3.728 12H0.12ZM1.832 10.408H3.728C3.90933 10.408 4.12533 10.4027 4.376 10.392C4.62667 10.3813 4.848 10.36 5.04 10.328C5.62667 10.216 6.10133 9.96267 6.464 9.568C6.832 9.168 7.10133 8.67733 7.272 8.096C7.44267 7.51467 7.528 6.896 7.528 6.24C7.528 5.56267 7.44 4.936 7.264 4.36C7.088 3.77867 6.816 3.29333 6.448 2.904C6.08533 2.50933 5.616 2.25867 5.04 2.152C4.848 2.11467 4.624 2.09333 4.368 2.088C4.11733 2.07733 3.904 2.072 3.728 2.072H1.832V10.408ZM13.6069 12.24C12.9669 12.24 12.4309 12.1227 11.9989 11.888C11.5669 11.648 11.2389 11.3333 11.0149 10.944C10.7962 10.5493 10.6869 10.1173 10.6869 9.648C10.6869 9.21067 10.7642 8.82667 10.9189 8.496C11.0735 8.16533 11.3029 7.88533 11.6069 7.656C11.9109 7.42133 12.2842 7.232 12.7269 7.088C13.1109 6.976 13.5455 6.87733 14.0309 6.792C14.5162 6.70667 15.0255 6.62667 15.5589 6.552C16.0975 6.47733 16.6309 6.40267 17.1589 6.328L16.5509 6.664C16.5615 5.98667 16.4175 5.48533 16.1189 5.16C15.8255 4.82933 15.3189 4.664 14.5989 4.664C14.1455 4.664 13.7295 4.77067 13.3509 4.984C12.9722 5.192 12.7082 5.53867 12.5589 6.024L10.9989 5.544C11.2122 4.80267 11.6175 4.21333 12.2149 3.776C12.8175 3.33867 13.6175 3.12 14.6149 3.12C15.3882 3.12 16.0602 3.25333 16.6309 3.52C17.2069 3.78133 17.6282 4.19733 17.8949 4.768C18.0335 5.05067 18.1189 5.34933 18.1509 5.664C18.1829 5.97867 18.1989 6.31733 18.1989 6.68V12H16.7189V10.024L17.0069 10.28C16.6495 10.9413 16.1935 11.4347 15.6389 11.76C15.0895 12.08 14.4122 12.24 13.6069 12.24ZM13.9029 10.872C14.3775 10.872 14.7855 10.7893 15.1269 10.624C15.4682 10.4533 15.7429 10.2373 15.9509 9.976C16.1589 9.71467 16.2949 9.44267 16.3589 9.16C16.4495 8.904 16.5002 8.616 16.5109 8.296C16.5269 7.976 16.5349 7.72 16.5349 7.528L17.0789 7.728C16.5509 7.808 16.0709 7.88 15.6389 7.944C15.2069 8.008 14.8149 8.072 14.4629 8.136C14.1162 8.19467 13.8069 8.26667 13.5349 8.352C13.3055 8.432 13.1002 8.528 12.9189 8.64C12.7429 8.752 12.6015 8.888 12.4949 9.048C12.3935 9.208 12.3429 9.40267 12.3429 9.632C12.3429 9.856 12.3989 10.064 12.5109 10.256C12.6229 10.4427 12.7935 10.592 13.0229 10.704C13.2522 10.816 13.5455 10.872 13.9029 10.872ZM20.2763 12V3.36H21.7643V5.456L21.5563 5.184C21.6629 4.90667 21.8016 4.65333 21.9723 4.424C22.1429 4.18933 22.3403 3.99733 22.5643 3.848C22.7829 3.688 23.0256 3.56533 23.2923 3.48C23.5643 3.38933 23.8416 3.336 24.1243 3.32C24.4069 3.29867 24.6789 3.312 24.9403 3.36V4.928C24.6576 4.85333 24.3429 4.832 23.9963 4.864C23.6549 4.896 23.3403 5.00533 23.0523 5.192C22.7803 5.368 22.5643 5.58133 22.4043 5.832C22.2496 6.08267 22.1376 6.36267 22.0683 6.672C21.9989 6.976 21.9643 7.29867 21.9643 7.64V12H20.2763ZM26.4558 12L26.4638 0.48H28.1598V7.52L31.5518 3.36H33.6798L30.0958 7.68L34.0478 12H31.7758L28.1598 7.84V12H26.4558ZM38.0575 12V0.48H39.5695L43.7455 9.144L47.8975 0.48H49.4255V11.992H47.8415V4.112L44.1215 12H43.3615L39.6335 4.112V12H38.0575ZM55.4189 12.24C54.5549 12.24 53.8055 12.0453 53.1709 11.656C52.5362 11.2667 52.0455 10.7307 51.6989 10.048C51.3575 9.36 51.1869 8.568 51.1869 7.672C51.1869 6.77067 51.3629 5.97867 51.7149 5.296C52.0669 4.608 52.5602 4.07467 53.1949 3.696C53.8295 3.312 54.5709 3.12 55.4189 3.12C56.2829 3.12 57.0322 3.31467 57.6669 3.704C58.3015 4.09333 58.7922 4.62933 59.1389 5.312C59.4855 5.99467 59.6589 6.78133 59.6589 7.672C59.6589 8.57333 59.4829 9.368 59.1309 10.056C58.7842 10.7387 58.2935 11.2747 57.6589 11.664C57.0242 12.048 56.2775 12.24 55.4189 12.24ZM55.4189 10.664C56.2455 10.664 56.8615 10.3867 57.2669 9.832C57.6775 9.272 57.8829 8.552 57.8829 7.672C57.8829 6.77067 57.6749 6.05067 57.2589 5.512C56.8482 4.968 56.2349 4.696 55.4189 4.696C54.8589 4.696 54.3975 4.824 54.0349 5.08C53.6722 5.33067 53.4029 5.68 53.2269 6.128C53.0509 6.57067 52.9629 7.08533 52.9629 7.672C52.9629 8.57867 53.1709 9.304 53.5869 9.848C54.0029 10.392 54.6135 10.664 55.4189 10.664ZM64.8489 12.24C64.0435 12.24 63.3475 12.04 62.7609 11.64C62.1795 11.24 61.7289 10.696 61.4089 10.008C61.0942 9.31467 60.9369 8.536 60.9369 7.672C60.9369 6.80267 61.0969 6.02667 61.4169 5.344C61.7369 4.656 62.1902 4.11467 62.7769 3.72C63.3689 3.32 64.0702 3.12 64.8809 3.12C65.6969 3.12 66.3822 3.32 66.9369 3.72C67.4969 4.11467 67.9182 4.656 68.2009 5.344C68.4889 6.032 68.6329 6.808 68.6329 7.672C68.6329 8.536 68.4889 9.312 68.2009 10C67.9129 10.688 67.4889 11.2347 66.9289 11.64C66.3689 12.04 65.6755 12.24 64.8489 12.24ZM65.0809 10.728C65.6302 10.728 66.0782 10.5973 66.4249 10.336C66.7715 10.0747 67.0249 9.71467 67.1849 9.256C67.3449 8.79733 67.4249 8.26933 67.4249 7.672C67.4249 7.07467 67.3422 6.54667 67.1769 6.088C67.0169 5.62933 66.7662 5.272 66.4249 5.016C66.0889 4.76 65.6595 4.632 65.1369 4.632C64.5822 4.632 64.1262 4.768 63.7689 5.04C63.4115 5.312 63.1449 5.67733 62.9689 6.136C62.7982 6.59467 62.7129 7.10667 62.7129 7.672C62.7129 8.24267 62.7982 8.76 62.9689 9.224C63.1449 9.68267 63.4062 10.048 63.7529 10.32C64.1049 10.592 64.5475 10.728 65.0809 10.728ZM67.4249 12V5.784H67.2329V0.48H68.9129V12H67.4249ZM74.9833 12.24C74.1246 12.24 73.3699 12.0533 72.7193 11.68C72.0739 11.3013 71.5699 10.776 71.2072 10.104C70.8499 9.42667 70.6713 8.64267 70.6713 7.752C70.6713 6.808 70.8473 5.98933 71.1993 5.296C71.5566 4.60267 72.0526 4.06667 72.6873 3.688C73.3219 3.30933 74.0606 3.12 74.9033 3.12C75.7833 3.12 76.5326 3.32533 77.1513 3.736C77.7699 4.14133 78.2313 4.72 78.5353 5.472C78.8446 6.224 78.9673 7.11733 78.9033 8.152H77.2313V7.544C77.2206 6.54133 77.0286 5.8 76.6553 5.32C76.2873 4.84 75.7246 4.6 74.9673 4.6C74.1299 4.6 73.5006 4.864 73.0793 5.392C72.6579 5.92 72.4473 6.68267 72.4473 7.68C72.4473 8.62933 72.6579 9.36533 73.0793 9.888C73.5006 10.4053 74.1086 10.664 74.9033 10.664C75.4259 10.664 75.8766 10.5467 76.2553 10.312C76.6393 10.072 76.9379 9.73067 77.1513 9.288L78.7913 9.808C78.4553 10.5813 77.9459 11.1813 77.2633 11.608C76.5806 12.0293 75.8206 12.24 74.9833 12.24ZM71.9033 8.152V6.848H78.0712V8.152H71.9033Z" fill="#565973"/>
</svg>
